<svg xmlns="http://www.w3.org/2000/svg" width="91" height="46" viewBox="0 0 91 46" fill="none">
  <path d="M90.0654 23.6019C89.9065 23.6019 89.7477 23.5411 89.626 23.4207C89.5702 23.3649 83.9679 17.7961 75.7245 12.3042C68.1501 7.25793 56.7308 1.2411 45.3425 1.2411C33.9542 1.2411 22.5349 7.25668 14.9605 12.3042C6.71713 17.7973 1.11482 23.3661 1.05897 23.4207C0.81696 23.6627 0.423524 23.6627 0.18151 23.4207C-0.0605034 23.1787 -0.0605034 22.7853 0.18151 22.5433C0.23736 22.4874 5.91165 16.8454 14.2518 11.2853C19.1566 8.01624 24.0143 5.40994 28.6907 3.53836C34.5599 1.19021 40.1634 0 45.3425 0C50.5216 0 56.1251 1.19021 61.9943 3.53836C66.6707 5.40869 71.5296 8.01499 76.4332 11.2853C84.7734 16.8454 90.4476 22.4874 90.5035 22.5433C90.7455 22.7853 90.7455 23.1787 90.5035 23.4207C90.3819 23.5423 90.223 23.6019 90.0642 23.6019H90.0654Z" fill="white"/>
  <path d="M45.3425 45.9628C40.1622 45.9628 34.5599 44.7726 28.6907 42.4245C24.0143 40.5541 19.1554 37.9478 14.2518 34.6775C5.91165 29.1174 0.23736 23.4754 0.18151 23.4196C-0.0605034 23.1775 -0.0605034 22.7841 0.18151 22.5421C0.423524 22.3001 0.81696 22.3001 1.05897 22.5421C1.11482 22.598 6.71713 28.1668 14.9605 33.6586C22.5349 38.7049 33.9542 44.7217 45.3425 44.7217C56.7308 44.7217 68.1501 38.7061 75.7245 33.6586C83.9679 28.1655 89.5714 22.5967 89.626 22.5421C89.8681 22.3001 90.2615 22.3001 90.5035 22.5421C90.7455 22.7841 90.7455 23.1775 90.5035 23.4196C90.4476 23.4754 84.7734 29.1174 76.4332 34.6775C71.5284 37.9466 66.6707 40.5529 61.9943 42.4245C56.1251 44.7726 50.5216 45.9628 45.3425 45.9628Z" fill="white"/>
  <path d="M50.0034 27.6869C52.5898 25.1005 52.5898 20.9071 50.0034 18.3207C47.417 15.7343 43.2236 15.7343 40.6372 18.3207C38.0508 20.9071 38.0508 25.1005 40.6372 27.6869C43.2236 30.2733 47.417 30.2733 50.0034 27.6869Z" fill="#4DA3C7"/>
  <path d="M45.3207 41.0802C35.3535 41.0802 27.2441 32.9709 27.2441 23.0037C27.2441 13.0364 35.3535 4.92712 45.3207 4.92712C55.2879 4.92712 63.3973 13.0364 63.3973 23.0037C63.3973 32.9709 55.2879 41.0802 45.3207 41.0802ZM45.3207 6.16822C36.0373 6.16822 28.4852 13.7203 28.4852 23.0037C28.4852 32.2871 36.0373 39.8391 45.3207 39.8391C54.6041 39.8391 62.1562 32.2871 62.1562 23.0037C62.1562 13.7203 54.6041 6.16822 45.3207 6.16822Z" fill="white"/>
  <path d="M45.3421 33.9538C39.2918 33.9538 34.3696 29.0317 34.3696 22.9813C34.3696 16.931 39.2918 12.0088 45.3421 12.0088C45.6847 12.0088 45.9627 12.2868 45.9627 12.6293C45.9627 12.9719 45.6847 13.2499 45.3421 13.2499C39.9756 13.2499 35.6107 17.6161 35.6107 22.9813C35.6107 28.3466 39.9769 32.7127 45.3421 32.7127C50.7074 32.7127 55.0736 28.3466 55.0736 22.9813C55.0736 21.1035 54.5374 19.2804 53.5247 17.7104C53.3385 17.4224 53.4217 17.0377 53.7096 16.8528C53.9976 16.6666 54.3811 16.7498 54.5672 17.0377C55.7103 18.8088 56.3147 20.864 56.3147 22.9813C56.3147 29.0317 51.3925 33.9538 45.3421 33.9538Z" fill="white"/>
</svg>