<svg width="56" height="56" viewBox="0 0 56 56" fill="none" xmlns="http://www.w3.org/2000/svg">
<g filter="url(#filter0_i_3859_4745)">
<path d="M55.5004 28.0011C55.5004 43.1895 43.1884 55.5015 27.9993 55.5015C12.812 55.5015 0.5 43.1896 0.5 28.0011C0.5 12.8126 12.812 0.5 27.9993 0.5C43.1884 0.500582 55.5004 12.8126 55.5004 28.0011Z" fill="#F9F9F9" stroke="#4DA3C7"/>
<path d="M37.2969 40.3516H18.7031C18.1918 40.3516 17.7734 39.9332 17.7734 39.4219V16.5781C17.7734 16.0668 18.1918 15.6484 18.7031 15.6484H31.5461L38.2266 22.3555V39.4219C38.2266 39.9332 37.8082 40.3516 37.2969 40.3516Z" fill="white"/>
<path d="M38.2264 22.3555H32.4756C31.9643 22.3555 31.5459 21.9371 31.5459 21.4258V15.6484L38.2264 22.3555Z" fill="#4DA3C7"/>
<path d="M20.4297 17.043V15.6484H18.7031C18.1918 15.6484 17.7734 16.0668 17.7734 16.5781V39.4219C17.7734 39.9332 18.1918 40.3516 18.7031 40.3516H37.2969C37.8082 40.3516 38.2266 39.9332 38.2266 39.4219V37.6953C28 36.168 20.4297 27.3891 20.4297 17.043Z" fill="#E6E7E8"/>
<path d="M37.2969 41.4141H18.7031C17.6074 41.4141 16.7109 40.5176 16.7109 39.4219V16.5781C16.7109 15.4824 17.6074 14.5859 18.7031 14.5859H29.534V16.7109H18.8359V39.2891H37.1641V24.3809H39.2891V39.4219C39.2891 40.5176 38.3926 41.4141 37.2969 41.4141Z" fill="#3E4D6C"/>
<path d="M25.6094 26.0078H34.6672V28.1328H25.6094V26.0078Z" fill="#3E4D6C"/>
<path d="M21.333 26.0078H23.4846V28.1328H21.333V26.0078Z" fill="#3E4D6C"/>
<path d="M25.6094 30.2578H34.6672V32.3828H25.6094V30.2578Z" fill="#3E4D6C"/>
<path d="M21.333 30.2578H23.4846V32.3828H21.333V30.2578Z" fill="#3E4D6C"/>
<path d="M25.6094 34.5078H34.6672V36.6328H25.6094V34.5078Z" fill="#3E4D6C"/>
<path d="M21.333 34.5078H23.4846V36.6328H21.333V34.5078Z" fill="#3E4D6C"/>
</g>
<defs>
<filter id="filter0_i_3859_4745" x="0" y="0" width="56.0005" height="60.0015" filterUnits="userSpaceOnUse" color-interpolation-filters="sRGB">
<feFlood flood-opacity="0" result="BackgroundImageFix"/>
<feBlend mode="normal" in="SourceGraphic" in2="BackgroundImageFix" result="shape"/>
<feColorMatrix in="SourceAlpha" type="matrix" values="0 0 0 0 0 0 0 0 0 0 0 0 0 0 0 0 0 0 127 0" result="hardAlpha"/>
<feOffset dy="4"/>
<feGaussianBlur stdDeviation="8.65"/>
<feComposite in2="hardAlpha" operator="arithmetic" k2="-1" k3="1"/>
<feColorMatrix type="matrix" values="0 0 0 0 0.6325 0 0 0 0 0.794631 0 0 0 0 0.8625 0 0 0 1 0"/>
<feBlend mode="normal" in2="shape" result="effect1_innerShadow_3859_4745"/>
</filter>
</defs>
</svg>