<svg width="56" height="56" viewBox="0 0 56 56" fill="none" xmlns="http://www.w3.org/2000/svg">
<g filter="url(#filter0_i_3859_4768)">
<path d="M55.5004 28.0011C55.5004 43.1895 43.1884 55.5015 27.9993 55.5015C12.812 55.5015 0.5 43.1896 0.5 28.0011C0.5 12.8126 12.812 0.5 27.9993 0.5C43.1884 0.500582 55.5004 12.8126 55.5004 28.0011Z" fill="#F9F9F9" stroke="#4DA3C7"/>
<path d="M27.9734 26.9375H37.9609V29.0625H27.9734V26.9375Z" fill="#4DA3C7"/>
<path d="M40.2188 30.2578C41.4657 30.2578 42.4766 29.247 42.4766 28C42.4766 26.753 41.4657 25.7422 40.2188 25.7422C38.9718 25.7422 37.9609 26.753 37.9609 28C37.9609 29.247 38.9718 30.2578 40.2188 30.2578Z" fill="#DDEEFF"/>
<path d="M40.2188 31.3203C38.3859 31.3203 36.8984 29.8328 36.8984 28C36.8984 26.1672 38.3859 24.6797 40.2188 24.6797C42.0516 24.6797 43.5391 26.1672 43.5391 28C43.5391 29.8328 42.0516 31.3203 40.2188 31.3203ZM40.2188 26.8047C39.5613 26.8047 39.0234 27.3426 39.0234 28C39.0234 28.6574 39.5613 29.1953 40.2188 29.1953C40.8762 29.1953 41.4141 28.6574 41.4141 28C41.4141 27.3426 40.8762 26.8047 40.2188 26.8047Z" fill="#4DA3C7"/>
<path d="M36.3074 23.4844H27.9734V21.3594H35.2449V18.0391H37.3699V22.4219C37.3699 23.0062 36.8917 23.4844 36.3074 23.4844Z" fill="#4DA3C7"/>
<path d="M36.3074 18.0391C37.5543 18.0391 38.5652 17.0282 38.5652 15.7812C38.5652 14.5343 37.5543 13.5234 36.3074 13.5234C35.0604 13.5234 34.0496 14.5343 34.0496 15.7812C34.0496 17.0282 35.0604 18.0391 36.3074 18.0391Z" fill="#DDEEFF"/>
<path d="M36.3074 19.1016C34.4746 19.1016 32.9871 17.6141 32.9871 15.7812C32.9871 13.9484 34.4746 12.4609 36.3074 12.4609C38.1402 12.4609 39.6277 13.9484 39.6277 15.7812C39.6277 17.6141 38.1335 19.1016 36.3074 19.1016ZM36.3074 14.5859C35.65 14.5859 35.1121 15.1238 35.1121 15.7812C35.1121 16.4387 35.65 16.9766 36.3074 16.9766C36.9648 16.9766 37.5027 16.4387 37.5027 15.7812C37.5027 15.1238 36.9648 14.5859 36.3074 14.5859Z" fill="#4DA3C7"/>
<path d="M37.3699 37.9609H35.2449V34.5742H27.9734V32.4492H36.3074C36.8917 32.4492 37.3699 32.9273 37.3699 33.5117V37.9609Z" fill="#4DA3C7"/>
<path d="M36.3074 42.4766C37.5543 42.4766 38.5652 41.4657 38.5652 40.2188C38.5652 38.9718 37.5543 37.9609 36.3074 37.9609C35.0604 37.9609 34.0496 38.9718 34.0496 40.2188C34.0496 41.4657 35.0604 42.4766 36.3074 42.4766Z" fill="#DDEEFF"/>
<path d="M36.3074 43.5391C34.4746 43.5391 32.9871 42.0516 32.9871 40.2188C32.9871 38.3859 34.4746 36.8984 36.3074 36.8984C38.1402 36.8984 39.6277 38.3859 39.6277 40.2188C39.6277 42.0516 38.1335 43.5391 36.3074 43.5391ZM36.3074 39.0234C35.65 39.0234 35.1121 39.5613 35.1121 40.2188C35.1121 40.8762 35.65 41.4141 36.3074 41.4141C36.9648 41.4141 37.5027 40.8762 37.5027 40.2188C37.5027 39.5613 36.9648 39.0234 36.3074 39.0234Z" fill="#4DA3C7"/>
<path d="M27.9867 15.3164C27.9336 15.3164 27.8871 15.3164 27.834 15.3164C27.4555 14.2738 26.3996 13.5234 25.1578 13.5234C23.6305 13.5234 22.3887 14.6523 22.3355 16.0668C21.884 15.8277 21.3594 15.6883 20.8016 15.6883C19.0551 15.6883 17.634 17.043 17.634 18.7098C17.634 19.002 17.6805 19.2809 17.7602 19.5465C15.9207 19.8387 14.5195 21.366 14.5195 23.2121C14.5195 24.1617 14.898 25.0316 15.5156 25.6891C14.3469 26.134 13.5234 27.223 13.5234 28.4914C13.5234 29.866 14.4863 31.0281 15.8078 31.3934C15.4492 31.8848 15.2367 32.4758 15.2367 33.1199C15.2367 34.707 16.5184 36.0086 18.152 36.1348C18.0457 36.4336 17.9926 36.7523 17.9926 37.0844C17.9926 38.7512 19.407 40.1059 21.1602 40.1059C21.5785 40.1059 21.977 40.0262 22.3422 39.8867C22.3688 41.3211 23.6238 42.4766 25.1645 42.4766C26.5922 42.4766 27.7742 41.4871 27.9602 40.1988H27.9934L27.9867 15.3164Z" fill="white"/>
<path d="M25.1578 43.5391C24.1484 43.5391 23.1855 43.1738 22.4617 42.5031C22.0434 42.118 21.7246 41.6598 21.5254 41.1551C21.3992 41.1684 21.2797 41.1684 21.1535 41.1684C18.8227 41.1684 16.9234 39.3355 16.9234 37.0844C16.9234 37.0379 16.9234 36.998 16.9234 36.9516C16.3191 36.7324 15.768 36.3805 15.3164 35.9223C14.5793 35.1652 14.1676 34.1691 14.1676 33.1266C14.1676 32.7082 14.234 32.2965 14.3602 31.9047C13.2047 31.1609 12.4609 29.8859 12.4609 28.4914C12.4609 27.2496 13.032 26.1141 13.9816 25.3504C13.6363 24.693 13.457 23.9559 13.457 23.2055C13.457 21.2066 14.7188 19.4734 16.5781 18.7695C16.5781 18.7496 16.5781 18.7297 16.5781 18.7098C16.5781 16.4586 18.4773 14.6258 20.8082 14.6258C21.0738 14.6258 21.3328 14.6523 21.5918 14.6988C22.1762 13.3773 23.5508 12.4609 25.1578 12.4609C26.6254 12.4609 27.9469 13.2445 28.6043 14.4531C28.8699 14.6457 29.0492 14.9578 29.0492 15.3164V40.1988C29.0492 40.3582 29.016 40.5109 28.9496 40.6504C28.5645 42.3172 26.984 43.5391 25.1578 43.5391ZM22.3422 38.8242C22.548 38.8242 22.7539 38.884 22.9332 39.0035C23.2188 39.1961 23.398 39.5148 23.4047 39.8668C23.4246 40.7168 24.2082 41.4141 25.1645 41.4141C26.0477 41.4141 26.798 40.823 26.9109 40.0461C26.9176 40.0129 26.9242 39.973 26.9309 39.9398V15.8676C26.8977 15.8078 26.8645 15.748 26.8379 15.6816C26.6055 15.0309 25.9281 14.5859 25.1645 14.5859C24.2281 14.5859 23.4379 15.2699 23.4047 16.1066C23.3914 16.4719 23.1922 16.8039 22.8734 16.9898C22.5547 17.1758 22.1695 17.1824 21.8441 17.0098C21.532 16.8438 21.1734 16.7574 20.8082 16.7574C19.6461 16.7574 18.7031 17.634 18.7031 18.7164C18.7031 18.8957 18.7297 19.075 18.7828 19.2477C18.8691 19.5398 18.8293 19.8586 18.6633 20.1176C18.4973 20.3766 18.2316 20.5559 17.9262 20.6023C16.5648 20.8148 15.582 21.9105 15.582 23.2121C15.582 23.8562 15.8344 24.4805 16.2859 24.9586C16.5316 25.2176 16.6246 25.5762 16.5449 25.9215C16.4652 26.2668 16.2195 26.5523 15.8875 26.6785C15.0973 26.984 14.5859 27.6945 14.5859 28.4914C14.5859 29.3547 15.2035 30.125 16.0867 30.3707C16.4254 30.4637 16.691 30.716 16.8039 31.048C16.9168 31.3801 16.8637 31.7453 16.6578 32.0242C16.4187 32.3496 16.2926 32.7281 16.2926 33.1266C16.2926 34.1426 17.1426 34.9992 18.225 35.0789C18.557 35.1055 18.8559 35.2781 19.0352 35.557C19.2145 35.8359 19.2609 36.1746 19.148 36.4867C19.0816 36.6793 19.0484 36.8852 19.0484 37.091C19.0484 38.1734 19.9914 39.05 21.1535 39.05C21.4324 39.05 21.698 38.9969 21.957 38.9039C22.0832 38.8508 22.2094 38.8242 22.3422 38.8242Z" fill="#3E4D6C"/>
<path d="M24.707 36.6129C22.3297 36.6129 20.3906 34.7402 20.3906 32.4426H22.5156C22.5156 33.5715 23.4984 34.4879 24.707 34.4879C25.9488 34.4879 26.925 33.6312 26.925 32.5355H29.05C29.05 33.6644 28.5852 34.707 27.7352 35.4773C26.925 36.2144 25.8492 36.6129 24.707 36.6129Z" fill="#3E4D6C"/>
<path d="M22.5156 23.5508H20.3906C20.3906 22.5812 20.7426 21.6316 21.3867 20.8879L23.0004 22.2758C22.6816 22.641 22.5156 23.0859 22.5156 23.5508Z" fill="#3E4D6C"/>
<path d="M29.05 23.4711H26.925C26.925 22.3687 25.9554 21.5055 24.7136 21.5055V19.3805C25.8558 19.3805 26.9316 19.7855 27.7417 20.5293C28.5785 21.2996 29.05 22.3488 29.05 23.4711Z" fill="#3E4D6C"/>
<path d="M22.7078 26.9375H27.9871V29.0625H22.7078V26.9375Z" fill="#3E4D6C"/>
<path d="M18.0527 26.9375H20.3371V29.0625H18.0527V26.9375Z" fill="#3E4D6C"/>
</g>
<defs>
<filter id="filter0_i_3859_4768" x="0" y="0" width="56.0002" height="60.0016" filterUnits="userSpaceOnUse" color-interpolation-filters="sRGB">
<feFlood flood-opacity="0" result="BackgroundImageFix"/>
<feBlend mode="normal" in="SourceGraphic" in2="BackgroundImageFix" result="shape"/>
<feColorMatrix in="SourceAlpha" type="matrix" values="0 0 0 0 0 0 0 0 0 0 0 0 0 0 0 0 0 0 127 0" result="hardAlpha"/>
<feOffset dy="4"/>
<feGaussianBlur stdDeviation="8.65"/>
<feComposite in2="hardAlpha" operator="arithmetic" k2="-1" k3="1"/>
<feColorMatrix type="matrix" values="0 0 0 0 0.6325 0 0 0 0 0.794631 0 0 0 0 0.8625 0 0 0 1 0"/>
<feBlend mode="normal" in2="shape" result="effect1_innerShadow_3859_4768"/>
</filter>
</defs>
</svg>