<svg width="70" height="71" viewBox="0 0 70 71" fill="none" xmlns="http://www.w3.org/2000/svg" style="">
<path d="M13.4167 35.3077C13.2941 35.3077 13.1715 35.2608 13.0776 35.1679L3.8809 25.9712C3.70369 25.794 3.69316 25.5105 3.85695 25.3198C3.97956 25.1781 6.90495 21.8063 11.2365 19.2574C13.7989 17.7487 16.3181 16.8502 18.7224 16.5877C21.7561 16.2563 24.6058 16.9383 27.1921 18.6137C27.4143 18.7573 27.4775 19.0543 27.3338 19.2765C27.1902 19.4987 26.8932 19.562 26.671 19.4183C22.3107 16.5935 17.2885 16.8128 11.7423 20.0716C8.31209 22.087 5.72867 24.7068 4.88094 25.6168L13.7558 34.4916C13.9426 34.6784 13.9426 34.9821 13.7558 35.1688C13.6619 35.2627 13.5393 35.3087 13.4167 35.3087V35.3077Z" fill="white" class="kaWDlcYd_0"></path>
<path d="M44.5357 66.4267C44.4131 66.4267 44.2905 66.3798 44.1966 66.2869L35 57.0902C34.8132 56.9034 34.8132 56.5998 35 56.413C35.1867 56.2262 35.4904 56.2262 35.6772 56.413L44.552 65.2878C45.463 64.4401 48.0818 61.8567 50.0972 58.4265C53.356 52.8803 53.5753 47.8581 50.7505 43.4978C50.6068 43.2755 50.67 42.9795 50.8923 42.8349C51.1145 42.6912 51.4105 42.7544 51.5551 42.9767C53.2314 45.563 53.9125 48.4127 53.5811 51.4463C53.3186 53.8506 52.4201 56.3699 50.9114 58.9322C48.3615 63.2628 44.9907 66.1892 44.849 66.3118C44.7589 66.3894 44.6478 66.4277 44.5367 66.4277L44.5357 66.4267Z" fill="white" class="kaWDlcYd_1"></path>
<path d="M35.0637 56.9551C34.9401 56.9551 34.8175 56.9072 34.7246 56.8152L13.0773 35.1679C12.9202 35.0108 12.8915 34.7656 13.0093 34.5769C13.0629 34.4907 18.4721 25.8448 28.0826 17.3234C33.7313 12.3146 39.7085 8.32309 45.8486 5.45901C53.4446 1.91482 61.3108 0.0977046 69.2335 0.0565154C69.3005 0.0210735 69.3772 0 69.4586 0C69.6051 0 69.7364 0.0660943 69.8235 0.169546C69.927 0.257672 69.9931 0.388903 69.9931 0.534502C69.9931 0.615922 69.973 0.692553 69.9366 0.759605C69.8944 8.6823 68.0725 16.5427 64.5178 24.1302C61.6451 30.2616 57.6421 36.2273 52.6189 41.8626C44.0726 51.4491 35.4018 56.8334 35.3156 56.8861C35.238 56.934 35.1509 56.957 35.0647 56.957L35.0637 56.9551ZM24.6016 45.3369L35.1307 55.866C36.7601 54.8094 44.3868 49.6598 51.9225 41.2026C59.6259 32.5567 68.7929 18.5974 68.9768 1.01536C51.3832 1.19928 37.3904 10.35 28.7186 18.0399C20.249 25.5507 15.0908 33.1372 14.0285 34.7637L24.6007 45.3359C24.6007 45.3359 24.6016 45.3369 24.6026 45.3378L24.6016 45.3369Z" fill="white" class="kaWDlcYd_2"></path>
<path d="M30.0724 70.4C29.9038 70.4 29.7457 70.3109 29.6595 70.1644L21.664 56.5777C19.6563 53.1666 16.7846 50.315 13.3582 48.3331L0.238958 40.7419C0.0847384 40.6528 -0.00721885 40.4861 0.000444251 40.308C0.00810736 40.1298 0.112517 39.9708 0.273442 39.8951L12.1359 34.2436C12.3744 34.1296 12.6609 34.2311 12.7739 34.4696C12.8879 34.7081 12.7863 34.9945 12.5478 35.1076L1.5072 40.3683L13.8391 47.5036C17.4081 49.5679 20.3996 52.5383 22.4907 56.0911L30.0072 68.8645L34.9088 57.4934C35.0132 57.2501 35.2948 57.139 35.5381 57.2434C35.7814 57.3478 35.8935 57.6304 35.7881 57.8727L30.5121 70.1117C30.4402 70.2774 30.2822 70.3885 30.1021 70.4C30.0925 70.4 30.082 70.4 30.0724 70.4Z" fill="white" class="kaWDlcYd_3"></path>
<path d="M8.00262 62.4783C7.88001 62.4783 7.7574 62.4314 7.66353 62.3384C7.47674 62.1516 7.47674 61.848 7.66353 61.6612L14.2758 55.0489C14.4626 54.8621 14.7663 54.8621 14.9531 55.0489C15.1398 55.2357 15.1398 55.5393 14.9531 55.7261L8.34076 62.3384C8.24688 62.4323 8.12427 62.4783 8.00166 62.4783H8.00262Z" fill="white" class="kaWDlcYd_4"></path>
<path d="M13.9445 65.1498C13.8219 65.1498 13.6993 65.1029 13.6054 65.01C13.4186 64.8232 13.4186 64.5195 13.6054 64.3327L16.9475 60.9907C17.1343 60.8039 17.4379 60.8039 17.6247 60.9907C17.8115 61.1775 17.8115 61.4811 17.6247 61.6679L14.2827 65.01C14.1888 65.1038 14.0662 65.1498 13.9436 65.1498H13.9445Z" fill="white" class="kaWDlcYd_5"></path>
<path d="M5.33123 56.5364C5.20862 56.5364 5.08601 56.4895 4.99214 56.3966C4.80535 56.2098 4.80535 55.9061 4.99214 55.7193L8.33421 52.3773C8.521 52.1905 8.82465 52.1905 9.01144 52.3773C9.19823 52.5641 9.19823 52.8677 9.01144 53.0545L5.66937 56.3966C5.5755 56.4904 5.45289 56.5364 5.33028 56.5364H5.33123Z" fill="white" class="kaWDlcYd_6"></path>
<path d="M66.8411 17.4201C66.7185 17.4201 66.5959 17.3732 66.502 17.2803L52.7055 3.48382C52.5187 3.29703 52.5187 2.99338 52.7055 2.8066C52.8923 2.61981 53.196 2.61981 53.3827 2.8066L67.1792 16.6031C67.366 16.7898 67.366 17.0935 67.1792 17.2803C67.0853 17.3742 66.9627 17.4201 66.8401 17.4201H66.8411Z" fill="white" class="kaWDlcYd_7"></path>
<path d="M41.6149 35.1392C45.3191 35.1392 48.322 32.1364 48.322 28.4321C48.322 24.7279 45.3191 21.725 41.6149 21.725C37.9106 21.725 34.9077 24.7279 34.9077 28.4321C34.9077 32.1364 37.9106 35.1392 41.6149 35.1392Z" fill="#4DA3C7" class="kaWDlcYd_8"></path>
<path d="M41.6151 35.6143C39.775 35.6143 37.9349 34.9141 36.5335 33.5127C33.7317 30.7109 33.7317 26.1523 36.5335 23.3505C37.8908 21.9931 39.6955 21.246 41.6151 21.246C43.5347 21.246 45.3394 21.9931 46.6967 23.3505C48.054 24.7078 48.8012 26.5124 48.8012 28.432C48.8012 30.3517 48.054 32.1563 46.6967 33.5136C45.2963 34.9141 43.4552 35.6153 41.6151 35.6153V35.6143ZM41.6151 22.2039C39.9512 22.2039 38.388 22.8514 37.2117 24.0277C34.7834 26.4559 34.7834 30.4072 37.2117 32.8355C38.4253 34.0491 40.0212 34.6564 41.6151 34.6564C43.21 34.6564 44.8049 34.0491 46.0195 32.8355C47.1958 31.6592 47.8433 30.0949 47.8433 28.4311C47.8433 26.7672 47.1958 25.204 46.0195 24.0277C44.8432 22.8514 43.2789 22.2039 41.6151 22.2039Z" fill="white" class="kaWDlcYd_9"></path>
<style data-made-with="vivus-instant">.kaWDlcYd_0{stroke-dasharray:81 83;stroke-dashoffset:82;animation:kaWDlcYd_draw 2000ms linear 0ms forwards;}.kaWDlcYd_1{stroke-dasharray:81 83;stroke-dashoffset:82;animation:kaWDlcYd_draw 2000ms linear 111ms forwards;}.kaWDlcYd_2{stroke-dasharray:335 337;stroke-dashoffset:336;animation:kaWDlcYd_draw 2000ms linear 222ms forwards;}.kaWDlcYd_3{stroke-dasharray:141 143;stroke-dashoffset:142;animation:kaWDlcYd_draw 2000ms linear 333ms forwards;}.kaWDlcYd_4{stroke-dasharray:22 24;stroke-dashoffset:23;animation:kaWDlcYd_draw 2000ms linear 444ms forwards;}.kaWDlcYd_5{stroke-dasharray:13 15;stroke-dashoffset:14;animation:kaWDlcYd_draw 2000ms linear 555ms forwards;}.kaWDlcYd_6{stroke-dasharray:13 15;stroke-dashoffset:14;animation:kaWDlcYd_draw 2000ms linear 666ms forwards;}.kaWDlcYd_7{stroke-dasharray:43 45;stroke-dashoffset:44;animation:kaWDlcYd_draw 2000ms linear 777ms forwards;}.kaWDlcYd_8{stroke-dasharray:43 45;stroke-dashoffset:44;animation:kaWDlcYd_draw 2000ms linear 888ms forwards;}.kaWDlcYd_9{stroke-dasharray:85 87;stroke-dashoffset:86;animation:kaWDlcYd_draw 2000ms linear 1000ms forwards;}@keyframes kaWDlcYd_draw{100%{stroke-dashoffset:0;}}@keyframes kaWDlcYd_fade{0%{stroke-opacity:1;}94.44444444444444%{stroke-opacity:1;}100%{stroke-opacity:0;}}</style></svg>
