<svg width="512" height="238" viewBox="0 0 512 238" fill="none" xmlns="http://www.w3.org/2000/svg">
<path d="M346.501 119.001C346.501 166.222 308.223 204.5 260.999 204.5C213.78 204.5 175.501 166.222 175.501 119.001C175.501 71.7798 213.78 33.5 260.999 33.5C308.223 33.5018 346.501 71.7799 346.501 119.001Z" stroke="#4DA3C7" stroke-opacity="0.6"/>
<path d="M362.499 119.001C362.499 175.059 317.057 220.5 260.996 220.5C204.941 220.5 159.499 175.059 159.499 119.001C159.499 62.9433 204.941 17.5 260.996 17.5C317.057 17.5021 362.499 62.9433 362.499 119.001Z" stroke="#4DA3C7" stroke-opacity="0.4"/>
<path d="M379.501 119.001C379.501 184.448 326.447 237.5 260.997 237.5C195.554 237.5 142.5 184.448 142.5 119.001C142.5 53.5545 195.554 0.5 260.997 0.5C326.447 0.502506 379.501 53.5546 379.501 119.001Z" stroke="#4DA3C7" stroke-opacity="0.2"/>
<g filter="url(#filter0_i_2823_41063)">
<path d="M330.003 119.001C330.003 157.109 299.112 188 261.002 188C222.896 188 192.005 157.109 192.005 119.001C192.005 80.8926 222.896 50 261.002 50C299.112 50.0015 330.003 80.8926 330.003 119.001Z" fill="#003366"/>
</g>
<path d="M329.503 119.001C329.503 156.833 298.836 187.5 261.002 187.5C223.173 187.5 192.505 156.833 192.505 119.001C192.505 81.1687 223.173 50.5 261.002 50.5C298.836 50.5014 329.503 81.1687 329.503 119.001Z" stroke="#4DA3C7"/>
<path d="M300.06 91.271V119.528C300.06 126.522 296.854 134.64 291.036 142.387C284.255 151.412 274.267 159.379 262.151 165.426L261 166L259.848 165.426C247.732 159.379 237.744 151.412 230.963 142.387C225.145 134.64 221.939 126.522 221.939 119.528V91.271L240.943 78H281.056L300.06 91.271Z" fill="#55AFE1"/>
<path d="M300.06 91.271V119.528C300.06 126.522 296.855 134.64 291.036 142.387C284.256 151.412 274.268 159.379 262.152 165.426L261 166V78H281.057L300.06 91.271Z" fill="#55AFE1"/>
<path d="M277.811 88.3129H244.187L232.252 96.6474V119.528C232.252 127.392 239.988 142.758 260.999 154.382C282.01 142.758 289.746 127.392 289.746 119.528V96.6474L277.811 88.3129Z" fill="#00B3FE"/>
<path d="M289.747 96.6474V119.528C289.747 127.392 282.011 142.758 261 154.382V88.3129H277.812L289.747 96.6474Z" fill="#00B3FE"/>
<path d="M278.622 85.7346H243.376L229.674 95.3033V119.528C229.674 124.558 232.221 130.948 236.661 137.06C242.067 144.503 250.05 151.273 259.751 156.639L260.999 157.33L262.247 156.639C271.948 151.273 279.932 144.503 285.338 137.06C289.777 130.948 292.325 124.558 292.325 119.528V95.3033L278.622 85.7346ZM287.168 119.528C287.168 126.388 280.171 140.395 260.999 151.423C241.828 140.395 234.83 126.388 234.83 119.528V97.9915L244.999 90.8911H277L287.168 97.9915V119.528Z" fill="#EFF5FA"/>
<path d="M292.325 95.3033V119.528C292.325 124.558 289.778 130.948 285.338 137.06C279.933 144.503 271.949 151.273 262.248 156.639L261 157.33V151.423C280.172 140.395 287.169 126.388 287.169 119.528V97.9915L277 90.8911H261V85.7346H278.623L292.325 95.3033Z" fill="#EFF5FA"/>
<path d="M277.459 107.949L260.999 124.865L260.965 124.901L256.78 129.202L244.54 117.755L248.062 113.989L256.608 121.983L260.965 117.507L260.999 117.471L273.763 104.353L277.459 107.949Z" fill="#EFF5FA"/>
<path d="M277.459 107.949L261 124.865V117.471L273.764 104.353L277.459 107.949Z" fill="#C6E1EC"/>
<g filter="url(#filter1_i_2823_41063)">
<path d="M55.5004 44.0011C55.5004 59.1895 43.1884 71.5015 27.9993 71.5015C12.812 71.5015 0.5 59.1896 0.5 44.0011C0.5 28.8126 12.812 16.5 27.9993 16.5C43.1884 16.5006 55.5004 28.8126 55.5004 44.0011Z" fill="#F9F9F9" stroke="#4DA3C7"/>
<path d="M37.2969 56.3516H18.7031C18.1918 56.3516 17.7734 55.9332 17.7734 55.4219V32.5781C17.7734 32.0668 18.1918 31.6484 18.7031 31.6484H31.5461L38.2266 38.3555V55.4219C38.2266 55.9332 37.8082 56.3516 37.2969 56.3516Z" fill="white"/>
<path d="M38.2264 38.3555H32.4756C31.9643 38.3555 31.5459 37.9371 31.5459 37.4258V31.6484L38.2264 38.3555Z" fill="#4DA3C7"/>
<path d="M20.4297 33.043V31.6484H18.7031C18.1918 31.6484 17.7734 32.0668 17.7734 32.5781V55.4219C17.7734 55.9332 18.1918 56.3516 18.7031 56.3516H37.2969C37.8082 56.3516 38.2266 55.9332 38.2266 55.4219V53.6953C28 52.168 20.4297 43.3891 20.4297 33.043Z" fill="#E6E7E8"/>
<path d="M37.2969 57.4141H18.7031C17.6074 57.4141 16.7109 56.5176 16.7109 55.4219V32.5781C16.7109 31.4824 17.6074 30.5859 18.7031 30.5859H29.534V32.7109H18.8359V55.2891H37.1641V40.3809H39.2891V55.4219C39.2891 56.5176 38.3926 57.4141 37.2969 57.4141Z" fill="#3E4D6C"/>
<path d="M25.6094 42.0078H34.6672V44.1328H25.6094V42.0078Z" fill="#3E4D6C"/>
<path d="M21.333 42.0078H23.4846V44.1328H21.333V42.0078Z" fill="#3E4D6C"/>
<path d="M25.6094 46.2578H34.6672V48.3828H25.6094V46.2578Z" fill="#3E4D6C"/>
<path d="M21.333 46.2578H23.4846V48.3828H21.333V46.2578Z" fill="#3E4D6C"/>
<path d="M25.6094 50.5078H34.6672V52.6328H25.6094V50.5078Z" fill="#3E4D6C"/>
<path d="M21.333 50.5078H23.4846V52.6328H21.333V50.5078Z" fill="#3E4D6C"/>
</g>
<g filter="url(#filter2_i_2823_41063)">
<path d="M511.5 191.001C511.5 206.19 499.188 218.502 483.999 218.502C468.812 218.502 456.5 206.19 456.5 191.001C456.5 175.813 468.812 163.5 483.999 163.5C499.188 163.501 511.5 175.813 511.5 191.001Z" fill="#F9F9F9" stroke="#4DA3C7"/>
<path d="M493.297 203.352H474.703C474.192 203.352 473.773 202.933 473.773 202.422V179.578C473.773 179.067 474.192 178.648 474.703 178.648H487.546L494.227 185.355V202.422C494.227 202.933 493.808 203.352 493.297 203.352Z" fill="white"/>
<path d="M494.226 185.355H488.476C487.964 185.355 487.546 184.937 487.546 184.426V178.648L494.226 185.355Z" fill="#4DA3C7"/>
<path d="M476.43 180.043V178.648H474.703C474.192 178.648 473.773 179.067 473.773 179.578V202.422C473.773 202.933 474.192 203.352 474.703 203.352H493.297C493.808 203.352 494.227 202.933 494.227 202.422V200.695C484 199.168 476.43 190.389 476.43 180.043Z" fill="#E6E7E8"/>
<path d="M493.297 204.414H474.703C473.607 204.414 472.711 203.518 472.711 202.422V179.578C472.711 178.482 473.607 177.586 474.703 177.586H485.534V179.711H474.836V202.289H493.164V187.381H495.289V202.422C495.289 203.518 494.393 204.414 493.297 204.414Z" fill="#3E4D6C"/>
<path d="M481.609 189.008H490.667V191.133H481.609V189.008Z" fill="#3E4D6C"/>
<path d="M477.333 189.008H479.485V191.133H477.333V189.008Z" fill="#3E4D6C"/>
<path d="M481.609 193.258H490.667V195.383H481.609V193.258Z" fill="#3E4D6C"/>
<path d="M477.333 193.258H479.485V195.383H477.333V193.258Z" fill="#3E4D6C"/>
<path d="M481.609 197.508H490.667V199.633H481.609V197.508Z" fill="#3E4D6C"/>
<path d="M477.333 197.508H479.485V199.633H477.333V197.508Z" fill="#3E4D6C"/>
</g>
<g filter="url(#filter3_i_2823_41063)">
<path d="M511.5 44.0011C511.5 59.1895 499.188 71.5015 483.999 71.5015C468.812 71.5015 456.5 59.1896 456.5 44.0011C456.5 28.8126 468.812 16.5 483.999 16.5C499.188 16.5006 511.5 28.8126 511.5 44.0011Z" fill="#F9F9F9" stroke="#4DA3C7"/>
<path d="M493.297 56.3516H474.703C474.192 56.3516 473.773 55.9332 473.773 55.4219V32.5781C473.773 32.0668 474.192 31.6484 474.703 31.6484H487.546L494.227 38.3555V55.4219C494.227 55.9332 493.808 56.3516 493.297 56.3516Z" fill="white"/>
<path d="M494.226 38.3555H488.476C487.964 38.3555 487.546 37.9371 487.546 37.4258V31.6484L494.226 38.3555Z" fill="#4DA3C7"/>
<path d="M476.43 33.043V31.6484H474.703C474.192 31.6484 473.773 32.0668 473.773 32.5781V55.4219C473.773 55.9332 474.192 56.3516 474.703 56.3516H493.297C493.808 56.3516 494.227 55.9332 494.227 55.4219V53.6953C484 52.168 476.43 43.3891 476.43 33.043Z" fill="#E6E7E8"/>
<path d="M493.297 57.4141H474.703C473.607 57.4141 472.711 56.5176 472.711 55.4219V32.5781C472.711 31.4824 473.607 30.5859 474.703 30.5859H485.534V32.7109H474.836V55.2891H493.164V40.3809H495.289V55.4219C495.289 56.5176 494.393 57.4141 493.297 57.4141Z" fill="#3E4D6C"/>
<path d="M481.609 42.0078H490.667V44.1328H481.609V42.0078Z" fill="#3E4D6C"/>
<path d="M477.333 42.0078H479.485V44.1328H477.333V42.0078Z" fill="#3E4D6C"/>
<path d="M481.609 46.2578H490.667V48.3828H481.609V46.2578Z" fill="#3E4D6C"/>
<path d="M477.333 46.2578H479.485V48.3828H477.333V46.2578Z" fill="#3E4D6C"/>
<path d="M481.609 50.5078H490.667V52.6328H481.609V50.5078Z" fill="#3E4D6C"/>
<path d="M477.333 50.5078H479.485V52.6328H477.333V50.5078Z" fill="#3E4D6C"/>
</g>
<g filter="url(#filter4_i_2823_41063)">
<path d="M55.5004 191.001C55.5004 206.19 43.1884 218.502 27.9993 218.502C12.812 218.502 0.5 206.19 0.5 191.001C0.5 175.813 12.812 163.5 27.9993 163.5C43.1884 163.501 55.5004 175.813 55.5004 191.001Z" fill="#F9F9F9" stroke="#4DA3C7"/>
<path d="M37.2969 203.352H18.7031C18.1918 203.352 17.7734 202.933 17.7734 202.422V179.578C17.7734 179.067 18.1918 178.648 18.7031 178.648H31.5461L38.2266 185.355V202.422C38.2266 202.933 37.8082 203.352 37.2969 203.352Z" fill="white"/>
<path d="M38.2264 185.355H32.4756C31.9643 185.355 31.5459 184.937 31.5459 184.426V178.648L38.2264 185.355Z" fill="#4DA3C7"/>
<path d="M20.4297 180.043V178.648H18.7031C18.1918 178.648 17.7734 179.067 17.7734 179.578V202.422C17.7734 202.933 18.1918 203.352 18.7031 203.352H37.2969C37.8082 203.352 38.2266 202.933 38.2266 202.422V200.695C28 199.168 20.4297 190.389 20.4297 180.043Z" fill="#E6E7E8"/>
<path d="M37.2969 204.414H18.7031C17.6074 204.414 16.7109 203.518 16.7109 202.422V179.578C16.7109 178.482 17.6074 177.586 18.7031 177.586H29.534V179.711H18.8359V202.289H37.1641V187.381H39.2891V202.422C39.2891 203.518 38.3926 204.414 37.2969 204.414Z" fill="#3E4D6C"/>
<path d="M25.6094 189.008H34.6672V191.133H25.6094V189.008Z" fill="#3E4D6C"/>
<path d="M21.333 189.008H23.4846V191.133H21.333V189.008Z" fill="#3E4D6C"/>
<path d="M25.6094 193.258H34.6672V195.383H25.6094V193.258Z" fill="#3E4D6C"/>
<path d="M21.333 193.258H23.4846V195.383H21.333V193.258Z" fill="#3E4D6C"/>
<path d="M25.6094 197.508H34.6672V199.633H25.6094V197.508Z" fill="#3E4D6C"/>
<path d="M21.333 197.508H23.4846V199.633H21.333V197.508Z" fill="#3E4D6C"/>
</g>
<defs>
<filter id="filter0_i_2823_41063" x="192.005" y="50" width="145.998" height="146" filterUnits="userSpaceOnUse" color-interpolation-filters="sRGB">
<feFlood flood-opacity="0" result="BackgroundImageFix"/>
<feBlend mode="normal" in="SourceGraphic" in2="BackgroundImageFix" result="shape"/>
<feColorMatrix in="SourceAlpha" type="matrix" values="0 0 0 0 0 0 0 0 0 0 0 0 0 0 0 0 0 0 127 0" result="hardAlpha"/>
<feOffset dx="8" dy="8"/>
<feGaussianBlur stdDeviation="20.15"/>
<feComposite in2="hardAlpha" operator="arithmetic" k2="-1" k3="1"/>
<feColorMatrix type="matrix" values="0 0 0 0 0.140625 0 0 0 0 0.702357 0 0 0 0 0.9375 0 0 0 1 0"/>
<feBlend mode="normal" in2="shape" result="effect1_innerShadow_2823_41063"/>
</filter>
<filter id="filter1_i_2823_41063" x="0" y="16" width="56.0005" height="60.0016" filterUnits="userSpaceOnUse" color-interpolation-filters="sRGB">
<feFlood flood-opacity="0" result="BackgroundImageFix"/>
<feBlend mode="normal" in="SourceGraphic" in2="BackgroundImageFix" result="shape"/>
<feColorMatrix in="SourceAlpha" type="matrix" values="0 0 0 0 0 0 0 0 0 0 0 0 0 0 0 0 0 0 127 0" result="hardAlpha"/>
<feOffset dy="4"/>
<feGaussianBlur stdDeviation="8.65"/>
<feComposite in2="hardAlpha" operator="arithmetic" k2="-1" k3="1"/>
<feColorMatrix type="matrix" values="0 0 0 0 0.6325 0 0 0 0 0.794631 0 0 0 0 0.8625 0 0 0 1 0"/>
<feBlend mode="normal" in2="shape" result="effect1_innerShadow_2823_41063"/>
</filter>
<filter id="filter2_i_2823_41063" x="456" y="163" width="56.0005" height="60.0016" filterUnits="userSpaceOnUse" color-interpolation-filters="sRGB">
<feFlood flood-opacity="0" result="BackgroundImageFix"/>
<feBlend mode="normal" in="SourceGraphic" in2="BackgroundImageFix" result="shape"/>
<feColorMatrix in="SourceAlpha" type="matrix" values="0 0 0 0 0 0 0 0 0 0 0 0 0 0 0 0 0 0 127 0" result="hardAlpha"/>
<feOffset dy="4"/>
<feGaussianBlur stdDeviation="8.65"/>
<feComposite in2="hardAlpha" operator="arithmetic" k2="-1" k3="1"/>
<feColorMatrix type="matrix" values="0 0 0 0 0.6325 0 0 0 0 0.794631 0 0 0 0 0.8625 0 0 0 1 0"/>
<feBlend mode="normal" in2="shape" result="effect1_innerShadow_2823_41063"/>
</filter>
<filter id="filter3_i_2823_41063" x="456" y="16" width="56.0005" height="60.0016" filterUnits="userSpaceOnUse" color-interpolation-filters="sRGB">
<feFlood flood-opacity="0" result="BackgroundImageFix"/>
<feBlend mode="normal" in="SourceGraphic" in2="BackgroundImageFix" result="shape"/>
<feColorMatrix in="SourceAlpha" type="matrix" values="0 0 0 0 0 0 0 0 0 0 0 0 0 0 0 0 0 0 127 0" result="hardAlpha"/>
<feOffset dy="4"/>
<feGaussianBlur stdDeviation="8.65"/>
<feComposite in2="hardAlpha" operator="arithmetic" k2="-1" k3="1"/>
<feColorMatrix type="matrix" values="0 0 0 0 0.6325 0 0 0 0 0.794631 0 0 0 0 0.8625 0 0 0 1 0"/>
<feBlend mode="normal" in2="shape" result="effect1_innerShadow_2823_41063"/>
</filter>
<filter id="filter4_i_2823_41063" x="0" y="163" width="56.0005" height="60.0016" filterUnits="userSpaceOnUse" color-interpolation-filters="sRGB">
<feFlood flood-opacity="0" result="BackgroundImageFix"/>
<feBlend mode="normal" in="SourceGraphic" in2="BackgroundImageFix" result="shape"/>
<feColorMatrix in="SourceAlpha" type="matrix" values="0 0 0 0 0 0 0 0 0 0 0 0 0 0 0 0 0 0 127 0" result="hardAlpha"/>
<feOffset dy="4"/>
<feGaussianBlur stdDeviation="8.65"/>
<feComposite in2="hardAlpha" operator="arithmetic" k2="-1" k3="1"/>
<feColorMatrix type="matrix" values="0 0 0 0 0.6325 0 0 0 0 0.794631 0 0 0 0 0.8625 0 0 0 1 0"/>
<feBlend mode="normal" in2="shape" result="effect1_innerShadow_2823_41063"/>
</filter>
</defs>
</svg>
