<svg width="296" height="92" viewBox="0 0 296 92" fill="none" xmlns="http://www.w3.org/2000/svg">
<g clip-path="url(#clip0_7830_31215)">
<rect x="0.5" width="295" height="92" rx="8" fill="#F2F9FF"/>
<path d="M49.9247 60.4599L1.25 11V106H296.25V11L245.403 50.6117C239.966 54.8474 232.342 54.8328 226.921 50.5764L199.225 28.8293C194.829 25.3782 188.88 24.6565 183.787 26.9565L135.877 48.5932C129.266 51.5788 121.466 49.4059 117.351 43.4322L114.454 39.2272C108.877 31.1313 97.15 30.4993 90.7351 37.9489L71.9823 59.7263C66.2586 66.3733 56.0774 66.7119 49.9247 60.4599Z" fill="url(#paint0_linear_7830_31215)"/>
<path d="M1.25 11L49.9312 60.4087C56.0827 66.6521 66.254 66.3138 71.9771 59.6754L90.7413 37.9101C97.156 30.4695 108.873 31.1011 114.45 39.1882L117.353 43.3964C121.468 49.3632 129.261 51.5338 135.868 48.5534L183.795 26.9343C188.884 24.6388 194.827 25.3593 199.22 28.8045L226.928 50.5353C232.346 54.7847 239.962 54.7993 245.396 50.5706L296.25 11" stroke="#0B8FFF"/>
<rect x="118.5" y="52.5" width="75" height="24" rx="12" fill="white"/>
<rect x="118.5" y="52.5" width="75" height="24" rx="12" stroke="#53BCFF"/>
<path d="M126.316 66.9668V65.9238L130.383 60.2695H131.977V65.877H133.248V66.9668H131.977V69H130.74V66.9668H126.316ZM130.74 65.877V61.6348H130.729L127.693 65.8652V65.877H130.74ZM134.367 69V60.2695H135.668V64.6172C136.143 64.0781 136.617 63.5508 137.104 63.0059L139.588 60.2695H141.234L137.789 64.0488L141.264 69H139.74L136.898 64.9336L135.668 66.293V69H134.367ZM148.734 69.1406C146.408 69.1406 144.721 67.3066 144.721 64.6406C144.721 61.957 146.408 60.1289 148.734 60.1289C151.061 60.1289 152.754 61.957 152.754 64.6406C152.754 66.2461 152.145 67.5469 151.148 68.332L152.273 69.791H150.949L150.246 68.8535C149.783 69.041 149.279 69.1406 148.734 69.1406ZM148.201 66.1816H149.484L150.387 67.3594C151.031 66.8086 151.447 65.8828 151.447 64.6406C151.447 62.502 150.24 61.3184 148.734 61.3184C147.229 61.3184 146.027 62.502 146.027 64.6406C146.027 66.7676 147.229 67.9512 148.734 67.9512C148.992 67.9512 149.238 67.9219 149.473 67.8516L148.201 66.1816ZM156.17 69.123C154.898 69.123 153.932 68.2852 153.932 66.668V62.8125H155.168V66.5156C155.168 67.5059 155.666 68.0156 156.527 68.0156C157.365 68.0156 158.016 67.5234 158.016 66.375V62.8125H159.252V69H158.039V68.0684C157.617 68.7715 156.99 69.123 156.17 69.123ZM163.289 69.1406C161.455 69.1406 160.342 67.7871 160.342 65.918C160.342 64.0312 161.537 62.6719 163.225 62.6719C164.977 62.6719 166.113 63.9961 166.113 65.9062V66.2402H161.561C161.602 67.3535 162.223 68.1094 163.307 68.1094C164.115 68.1094 164.654 67.7051 164.83 67.1191H166.02C165.791 68.3145 164.689 69.1406 163.289 69.1406ZM161.572 65.3027H164.906C164.807 64.3184 164.174 63.7031 163.236 63.7031C162.305 63.7031 161.678 64.3184 161.572 65.3027ZM167.186 69V62.8125H168.369V63.8145H168.393C168.621 63.1406 169.102 62.7363 169.887 62.7363C170.074 62.7363 170.238 62.7539 170.338 62.7656V63.9199C170.244 63.9023 169.975 63.8613 169.688 63.8613C168.99 63.8613 168.422 64.3359 168.422 65.3438V69H167.186ZM171.287 69V62.8125H172.523V69H171.287ZM171.902 61.7461C171.463 61.7461 171.123 61.4121 171.123 60.9902C171.123 60.5625 171.463 60.2285 171.902 60.2285C172.342 60.2285 172.688 60.5625 172.688 60.9902C172.688 61.4121 172.342 61.7461 171.902 61.7461ZM176.566 69.1406C174.732 69.1406 173.619 67.7871 173.619 65.918C173.619 64.0312 174.814 62.6719 176.502 62.6719C178.254 62.6719 179.391 63.9961 179.391 65.9062V66.2402H174.838C174.879 67.3535 175.5 68.1094 176.584 68.1094C177.393 68.1094 177.932 67.7051 178.107 67.1191H179.297C179.068 68.3145 177.967 69.1406 176.566 69.1406ZM174.85 65.3027H178.184C178.084 64.3184 177.451 63.7031 176.514 63.7031C175.582 63.7031 174.955 64.3184 174.85 65.3027ZM182.754 69.1465C181.336 69.1465 180.258 68.4609 180.17 67.1191H181.389C181.459 67.7871 181.928 68.1621 182.73 68.1621C183.516 68.1621 184.002 67.8047 184.002 67.3125C184.002 66.8906 183.645 66.6445 183.111 66.5273L182.086 66.2988C180.92 66.041 180.311 65.4492 180.311 64.5293C180.311 63.4336 181.26 62.6777 182.678 62.6777C184.072 62.6777 185.068 63.4512 185.104 64.6992H183.92C183.908 64.0957 183.428 63.6562 182.695 63.6562C181.992 63.6562 181.547 64.0312 181.547 64.5059C181.547 64.9219 181.881 65.1738 182.438 65.3027L183.492 65.5371C184.699 65.8066 185.25 66.3457 185.25 67.2422C185.25 68.4199 184.195 69.1465 182.754 69.1465Z" fill="#333333"/>
<rect x="198.5" y="17.5" width="75" height="24" rx="12" fill="white"/>
<rect x="198.5" y="17.5" width="75" height="24" rx="12" stroke="#53BCFF"/>
<path d="M209.557 34.1406C207.74 34.1406 206.475 33.1211 206.475 31.6738C206.475 30.5078 207.289 29.5938 208.408 29.4473C207.447 29.2715 206.785 28.5156 206.785 27.4785C206.785 26.1191 207.945 25.1289 209.557 25.1289C211.162 25.1289 212.322 26.1133 212.322 27.4785C212.322 28.5098 211.654 29.2715 210.705 29.4473C211.818 29.5996 212.639 30.5137 212.639 31.6738C212.639 33.1211 211.367 34.1406 209.557 34.1406ZM209.557 33.0801C210.635 33.0801 211.338 32.4941 211.338 31.5977C211.338 30.6836 210.594 30.0273 209.557 30.0273C208.514 30.0273 207.764 30.6836 207.764 31.5977C207.764 32.4883 208.473 33.0801 209.557 33.0801ZM209.557 28.9785C210.459 28.9785 211.068 28.416 211.068 27.5781C211.068 26.7461 210.459 26.1953 209.557 26.1953C208.648 26.1953 208.039 26.7461 208.039 27.5781C208.039 28.416 208.648 28.9785 209.557 28.9785ZM213.91 34V25.2695H215.211V29.6172C215.686 29.0781 216.16 28.5508 216.646 28.0059L219.131 25.2695H220.777L217.332 29.0488L220.807 34H219.283L216.441 29.9336L215.211 31.293V34H213.91ZM228.277 34.1406C225.951 34.1406 224.264 32.3066 224.264 29.6406C224.264 26.957 225.951 25.1289 228.277 25.1289C230.604 25.1289 232.297 26.957 232.297 29.6406C232.297 31.2461 231.688 32.5469 230.691 33.332L231.816 34.791H230.492L229.789 33.8535C229.326 34.041 228.822 34.1406 228.277 34.1406ZM227.744 31.1816H229.027L229.93 32.3594C230.574 31.8086 230.99 30.8828 230.99 29.6406C230.99 27.502 229.783 26.3184 228.277 26.3184C226.771 26.3184 225.57 27.502 225.57 29.6406C225.57 31.7676 226.771 32.9512 228.277 32.9512C228.535 32.9512 228.781 32.9219 229.016 32.8516L227.744 31.1816ZM235.713 34.123C234.441 34.123 233.475 33.2852 233.475 31.668V27.8125H234.711V31.5156C234.711 32.5059 235.209 33.0156 236.07 33.0156C236.908 33.0156 237.559 32.5234 237.559 31.375V27.8125H238.795V34H237.582V33.0684C237.16 33.7715 236.533 34.123 235.713 34.123ZM242.832 34.1406C240.998 34.1406 239.885 32.7871 239.885 30.918C239.885 29.0312 241.08 27.6719 242.768 27.6719C244.52 27.6719 245.656 28.9961 245.656 30.9062V31.2402H241.104C241.145 32.3535 241.766 33.1094 242.85 33.1094C243.658 33.1094 244.197 32.7051 244.373 32.1191H245.562C245.334 33.3145 244.232 34.1406 242.832 34.1406ZM241.115 30.3027H244.449C244.35 29.3184 243.717 28.7031 242.779 28.7031C241.848 28.7031 241.221 29.3184 241.115 30.3027ZM246.729 34V27.8125H247.912V28.8145H247.936C248.164 28.1406 248.645 27.7363 249.43 27.7363C249.617 27.7363 249.781 27.7539 249.881 27.7656V28.9199C249.787 28.9023 249.518 28.8613 249.23 28.8613C248.533 28.8613 247.965 29.3359 247.965 30.3438V34H246.729ZM250.83 34V27.8125H252.066V34H250.83ZM251.445 26.7461C251.006 26.7461 250.666 26.4121 250.666 25.9902C250.666 25.5625 251.006 25.2285 251.445 25.2285C251.885 25.2285 252.23 25.5625 252.23 25.9902C252.23 26.4121 251.885 26.7461 251.445 26.7461ZM256.109 34.1406C254.275 34.1406 253.162 32.7871 253.162 30.918C253.162 29.0312 254.357 27.6719 256.045 27.6719C257.797 27.6719 258.934 28.9961 258.934 30.9062V31.2402H254.381C254.422 32.3535 255.043 33.1094 256.127 33.1094C256.936 33.1094 257.475 32.7051 257.65 32.1191H258.84C258.611 33.3145 257.51 34.1406 256.109 34.1406ZM254.393 30.3027H257.727C257.627 29.3184 256.994 28.7031 256.057 28.7031C255.125 28.7031 254.498 29.3184 254.393 30.3027ZM262.297 34.1465C260.879 34.1465 259.801 33.4609 259.713 32.1191H260.932C261.002 32.7871 261.471 33.1621 262.273 33.1621C263.059 33.1621 263.545 32.8047 263.545 32.3125C263.545 31.8906 263.188 31.6445 262.654 31.5273L261.629 31.2988C260.463 31.041 259.854 30.4492 259.854 29.5293C259.854 28.4336 260.803 27.6777 262.221 27.6777C263.615 27.6777 264.611 28.4512 264.646 29.6992H263.463C263.451 29.0957 262.971 28.6562 262.238 28.6562C261.535 28.6562 261.09 29.0312 261.09 29.5059C261.09 29.9219 261.424 30.1738 261.98 30.3027L263.035 30.5371C264.242 30.8066 264.793 31.3457 264.793 32.2422C264.793 33.4199 263.738 34.1465 262.297 34.1465Z" fill="#333333"/>
<circle cx="13" cy="23" r="3.5" fill="white" stroke="#53BCFF"/>
<circle cx="128" cy="48" r="3.5" fill="white" stroke="#53BCFF"/>
<circle cx="281" cy="24" r="3.5" fill="white" stroke="#53BCFF"/>
<rect x="20.5" y="11.5" width="75" height="24" rx="12" fill="white"/>
<rect x="20.5" y="11.5" width="75" height="24" rx="12" stroke="#53BCFF"/>
<path d="M31.6445 28.1406C29.6289 28.1406 28.4746 26.6172 28.4746 23.957C28.4746 21.0391 29.5352 19.1289 31.7617 19.1289C33.3555 19.1289 34.4277 20.1074 34.5859 21.5137H33.3379C33.1855 20.7227 32.6465 20.2188 31.7969 20.2188C30.373 20.2188 29.6992 21.5254 29.6992 23.3711H29.7109C30.1211 22.6973 30.9414 22.2871 31.8672 22.2871C33.4785 22.2871 34.668 23.5234 34.668 25.1875C34.668 26.9277 33.4199 28.1406 31.6445 28.1406ZM31.6387 27.0449C32.6348 27.0449 33.4141 26.2246 33.4141 25.1875C33.4141 24.1562 32.6582 23.3594 31.668 23.3594C30.6719 23.3594 29.875 24.1738 29.875 25.1992C29.875 26.2246 30.6602 27.0449 31.6387 27.0449ZM35.9453 28V19.2695H37.2461V23.6172C37.7207 23.0781 38.1953 22.5508 38.6816 22.0059L41.166 19.2695H42.8125L39.3672 23.0488L42.8418 28H41.3184L38.4766 23.9336L37.2461 25.293V28H35.9453ZM50.3125 28.1406C47.9863 28.1406 46.2988 26.3066 46.2988 23.6406C46.2988 20.957 47.9863 19.1289 50.3125 19.1289C52.6387 19.1289 54.332 20.957 54.332 23.6406C54.332 25.2461 53.7227 26.5469 52.7266 27.332L53.8516 28.791H52.5273L51.8242 27.8535C51.3613 28.041 50.8574 28.1406 50.3125 28.1406ZM49.7793 25.1816H51.0625L51.9648 26.3594C52.6094 25.8086 53.0254 24.8828 53.0254 23.6406C53.0254 21.502 51.8184 20.3184 50.3125 20.3184C48.8066 20.3184 47.6055 21.502 47.6055 23.6406C47.6055 25.7676 48.8066 26.9512 50.3125 26.9512C50.5703 26.9512 50.8164 26.9219 51.0508 26.8516L49.7793 25.1816ZM57.748 28.123C56.4766 28.123 55.5098 27.2852 55.5098 25.668V21.8125H56.7461V25.5156C56.7461 26.5059 57.2441 27.0156 58.1055 27.0156C58.9434 27.0156 59.5938 26.5234 59.5938 25.375V21.8125H60.8301V28H59.6172V27.0684C59.1953 27.7715 58.5684 28.123 57.748 28.123ZM64.8672 28.1406C63.0332 28.1406 61.9199 26.7871 61.9199 24.918C61.9199 23.0312 63.1152 21.6719 64.8027 21.6719C66.5547 21.6719 67.6914 22.9961 67.6914 24.9062V25.2402H63.1387C63.1797 26.3535 63.8008 27.1094 64.8848 27.1094C65.6934 27.1094 66.2324 26.7051 66.4082 26.1191H67.5977C67.3691 27.3145 66.2676 28.1406 64.8672 28.1406ZM63.1504 24.3027H66.4844C66.3848 23.3184 65.752 22.7031 64.8145 22.7031C63.8828 22.7031 63.2559 23.3184 63.1504 24.3027ZM68.7637 28V21.8125H69.9473V22.8145H69.9707C70.1992 22.1406 70.6797 21.7363 71.4648 21.7363C71.6523 21.7363 71.8164 21.7539 71.916 21.7656V22.9199C71.8223 22.9023 71.5527 22.8613 71.2656 22.8613C70.5684 22.8613 70 23.3359 70 24.3438V28H68.7637ZM72.8652 28V21.8125H74.1016V28H72.8652ZM73.4805 20.7461C73.041 20.7461 72.7012 20.4121 72.7012 19.9902C72.7012 19.5625 73.041 19.2285 73.4805 19.2285C73.9199 19.2285 74.2656 19.5625 74.2656 19.9902C74.2656 20.4121 73.9199 20.7461 73.4805 20.7461ZM78.1445 28.1406C76.3105 28.1406 75.1973 26.7871 75.1973 24.918C75.1973 23.0312 76.3926 21.6719 78.0801 21.6719C79.832 21.6719 80.9688 22.9961 80.9688 24.9062V25.2402H76.416C76.457 26.3535 77.0781 27.1094 78.1621 27.1094C78.9707 27.1094 79.5098 26.7051 79.6855 26.1191H80.875C80.6465 27.3145 79.5449 28.1406 78.1445 28.1406ZM76.4277 24.3027H79.7617C79.6621 23.3184 79.0293 22.7031 78.0918 22.7031C77.1602 22.7031 76.5332 23.3184 76.4277 24.3027ZM84.332 28.1465C82.9141 28.1465 81.8359 27.4609 81.748 26.1191H82.9668C83.0371 26.7871 83.5059 27.1621 84.3086 27.1621C85.0938 27.1621 85.5801 26.8047 85.5801 26.3125C85.5801 25.8906 85.2227 25.6445 84.6895 25.5273L83.6641 25.2988C82.498 25.041 81.8887 24.4492 81.8887 23.5293C81.8887 22.4336 82.8379 21.6777 84.2559 21.6777C85.6504 21.6777 86.6465 22.4512 86.6816 23.6992H85.498C85.4863 23.0957 85.0059 22.6562 84.2734 22.6562C83.5703 22.6562 83.125 23.0312 83.125 23.5059C83.125 23.9219 83.459 24.1738 84.0156 24.3027L85.0703 24.5371C86.2773 24.8066 86.8281 25.3457 86.8281 26.2422C86.8281 27.4199 85.7734 28.1465 84.332 28.1465Z" fill="#333333"/>
</g>
<rect x="1" y="0.5" width="294" height="91" rx="7.5" stroke="#B5DFFF"/>
<defs>
<linearGradient id="paint0_linear_7830_31215" x1="148.75" y1="11" x2="148.75" y2="106" gradientUnits="userSpaceOnUse">
<stop stop-color="#79D8FF"/>
<stop offset="1" stop-color="#006CD8"/>
</linearGradient>
<clipPath id="clip0_7830_31215">
<rect x="0.5" width="295" height="92" rx="8" fill="white"/>
</clipPath>
</defs>
</svg>
