<svg width="160" height="68" viewBox="0 0 160 68" fill="none" xmlns="http://www.w3.org/2000/svg">
<g filter="url(#filter0_i_2823_41063)">
<path d="M67.4955 33.9988C67.4955 52.4998 52.4984 67.497 33.9967 67.497C15.4972 67.497 0.5 52.4998 0.5 33.9988C0.5 15.4978 15.4972 0.5 33.9967 0.5C52.4984 0.500708 67.4955 15.4979 67.4955 33.9988Z" fill="#F9F9F9" stroke="#4DA3C7"/>
<g clip-path="url(#clip0_2823_41063)">
<path d="M49.8637 50.9219H41.2181C40.6136 50.9219 40.1025 50.4118 40.1025 49.8083V48.2817C40.1025 45.2948 42.5384 42.8735 45.5303 42.8735H45.5175C48.5093 42.8735 50.9219 45.2949 50.9219 48.2817V49.8083C50.9219 50.4118 50.4681 50.9219 49.8637 50.9219Z" fill="white"/>
<path d="M50.9163 48.0626C50.9192 48.1354 50.9219 48.2082 50.9219 48.2818V49.8084C50.9219 50.4119 50.4681 50.922 49.8637 50.922H41.2181C40.6136 50.922 40.1025 50.4119 40.1025 49.8084V48.2818C40.1025 46.0892 41.4159 44.2028 43.2976 43.3538C43.032 43.9911 42.8847 44.6896 42.8847 45.4224C42.8847 46.8806 44.0667 48.0626 45.5248 48.0626H50.9163Z" fill="#E6E7E8"/>
<path d="M45.5411 44.0969C47.301 44.0969 48.7277 42.6839 48.7277 40.9409C48.7277 39.1979 47.301 37.7849 45.5411 37.7849C43.7812 37.7849 42.3545 39.1979 42.3545 40.9409C42.3545 42.6839 43.7812 44.0969 45.5411 44.0969Z" fill="white"/>
<path d="M49.3737 42.9724C49.7007 42.3666 49.8867 41.675 49.8867 40.941C49.8867 38.5615 47.9372 36.6257 45.5409 36.6257C43.1447 36.6257 41.1951 38.5615 41.1951 40.941C41.1951 41.6651 41.3765 42.3475 41.6952 42.9474C40.0304 44.1401 38.9434 46.0861 38.9434 48.2816V49.8082C38.9434 51.0614 39.9639 52.081 41.2182 52.081H49.8637C51.0863 52.081 52.0811 51.0614 52.0811 49.8082V48.2816C52.0811 46.1014 51.0132 44.1672 49.3737 42.9724ZM45.5409 38.9442C46.6589 38.9442 47.5683 39.8399 47.5683 40.941C47.5683 42.0421 46.6588 42.9378 45.5409 42.9378C44.423 42.9378 43.5135 42.042 43.5135 40.941C43.5135 39.84 44.423 38.9442 45.5409 38.9442ZM49.7621 49.7626H41.2618V48.2816C41.2618 46.7434 42.0878 45.3946 43.3209 44.6488C43.9712 45.0341 44.7303 45.2562 45.5409 45.2562C46.3416 45.2562 47.0919 45.0392 47.7367 44.6626C48.9509 45.4109 49.7627 46.7526 49.7627 48.2816L49.7621 49.7626Z" fill="#3E4D6C"/>
<path d="M26.8339 50.9219H18.1883C17.5839 50.9219 17.0728 50.4118 17.0728 49.8083V48.2817C17.0728 45.2948 19.5086 42.8735 22.5005 42.8735H22.4877C25.4795 42.8735 27.8921 45.2949 27.8921 48.2817V49.8083C27.8921 50.4118 27.4383 50.9219 26.8339 50.9219Z" fill="white"/>
<path d="M27.8865 48.0626C27.8894 48.1354 27.8921 48.2082 27.8921 48.2818V49.8084C27.8921 50.4119 27.4383 50.922 26.8339 50.922H18.1883C17.5839 50.922 17.0728 50.4119 17.0728 49.8084V48.2818C17.0728 46.0892 18.3861 44.2028 20.2678 43.3538C20.0022 43.9911 19.8549 44.6896 19.8549 45.4224C19.8549 46.8806 21.0369 48.0626 22.495 48.0626H27.8865Z" fill="#E6E7E8"/>
<path d="M22.5113 44.0969C24.2712 44.0969 25.6979 42.6839 25.6979 40.9409C25.6979 39.1979 24.2712 37.7849 22.5113 37.7849C20.7514 37.7849 19.3247 39.1979 19.3247 40.9409C19.3247 42.6839 20.7514 44.0969 22.5113 44.0969Z" fill="white"/>
<path d="M26.3438 42.9727C26.6708 42.3669 26.8569 41.6752 26.8569 40.941C26.8569 38.5615 24.9074 36.6257 22.5111 36.6257C20.1149 36.6257 18.1653 38.5615 18.1653 40.941C18.1653 41.6646 18.3465 42.3466 18.6647 42.9461C17 44.1391 15.9136 46.0861 15.9136 48.2816V49.8082C15.9136 51.0614 16.9341 52.081 18.1884 52.081H26.8339C28.0566 52.081 29.0513 51.0614 29.0513 49.8082V48.2816C29.0513 46.1014 27.9832 44.1674 26.3438 42.9727ZM22.5111 38.9442C23.6291 38.9442 24.5385 39.8399 24.5385 40.941C24.5385 42.0421 23.629 42.9378 22.5111 42.9378C21.3933 42.9378 20.4837 42.042 20.4837 40.941C20.4837 39.84 21.3932 38.9442 22.5111 38.9442ZM26.7324 49.7626H18.232V48.2816C18.232 46.7784 19.0048 45.4559 20.2413 44.7004V44.5978C20.8596 45.0143 21.6823 45.2562 22.5279 45.2562C23.3289 45.2562 24.071 45.0391 24.7161 44.6622C25.93 45.4107 26.7371 46.7528 26.7371 48.2816L26.7324 49.7626Z" fill="#3E4D6C"/>
<path d="M36.077 26.3408L33.9972 30.0025L31.9173 26.3408L29.4778 27.0741C28.3889 27.3991 27.6602 28.3964 27.6602 29.5277V34.3086C27.6602 35.0159 28.2024 35.5685 28.9132 35.5685H39.0811C39.7919 35.5685 40.3341 35.0159 40.3341 34.3086V29.5277C40.3341 28.3964 39.6055 27.3991 38.5165 27.0741L36.077 26.3408Z" fill="white"/>
<path d="M40.3342 32.8382V34.3087C40.3342 35.0161 39.792 35.5431 39.0812 35.5687H28.9132C28.2024 35.5431 27.6602 35.0161 27.6602 34.3087V29.5279C27.6602 28.3966 28.3888 27.3993 29.4778 27.0742L30.2877 26.8308C30.2735 30.1409 32.9515 32.8325 36.2616 32.8351L40.3342 32.8382Z" fill="#E6E7E8"/>
<path d="M39.0812 36.7278H28.9132C27.5606 36.7278 26.501 35.6652 26.501 34.3087V29.5278C26.501 27.8681 27.5641 26.4357 29.1462 25.9633L31.5837 25.2308C32.1014 25.0752 32.6582 25.2982 32.9253 25.7684L33.9972 27.6556L35.0691 25.7684C35.3362 25.2983 35.8931 25.0753 36.4107 25.2308L38.8502 25.964C40.4304 26.4357 41.4935 27.8681 41.4935 29.5278V34.3087C41.4935 35.6652 40.4339 36.7278 39.0812 36.7278ZM31.3659 27.7172L29.8115 28.1843C29.2172 28.3617 28.8194 28.9013 28.8194 29.5278V34.3087C28.8194 34.3972 28.8645 34.4094 28.9132 34.4094H39.0812C39.13 34.4094 39.175 34.3972 39.175 34.3087V29.5278C39.175 28.9014 38.7773 28.3617 38.1851 28.185L36.6285 27.7172L35.0051 30.5752C34.5689 31.3428 33.4253 31.3428 32.9892 30.5752L31.3659 27.7172Z" fill="#3E4D6C"/>
<path d="M33.9974 23.6789C35.8306 23.6789 37.3167 22.2 37.3167 20.3758C37.3167 18.5516 35.8306 17.0728 33.9974 17.0728C32.1643 17.0728 30.6782 18.5516 30.6782 20.3758C30.6782 22.2 32.1643 23.6789 33.9974 23.6789Z" fill="white"/>
<path d="M33.9974 24.838C31.528 24.838 29.519 22.8363 29.519 20.3758C29.519 17.9152 31.528 15.9136 33.9974 15.9136C36.4667 15.9136 38.4757 17.9153 38.4757 20.3758C38.4757 22.8364 36.4667 24.838 33.9974 24.838ZM33.9974 18.232C32.8064 18.232 31.8375 19.1937 31.8375 20.3758C31.8375 21.558 32.8064 22.5196 33.9974 22.5196C35.1884 22.5196 36.1573 21.5579 36.1573 20.3758C36.1573 19.1936 35.1884 18.232 33.9974 18.232Z" fill="#3E4D6C"/>
<path d="M38.4796 42.498H33.6408L34.2963 41.9888L32.874 40.158L29.551 42.7394C28.9698 43.1909 28.9637 44.1021 29.5393 44.5611L32.7907 47.1545L34.2364 45.342L33.5774 44.8165H38.4796V42.498Z" fill="#4DA3C7"/>
<path d="M26.9008 22.2336L23.655 19.6521L22.2118 21.4666L22.9059 22.0187H19.5459C18.9057 22.0187 18.3867 22.5377 18.3867 23.1779V31.7561H20.7051V24.3371H22.8204L22.2049 24.828L23.6506 26.6405L26.902 24.0471C27.4733 23.5915 27.4728 22.6886 26.9008 22.2336Z" fill="#4DA3C7"/>
<path d="M49.5724 26.9957L49.067 27.6272V22.0186C49.067 21.3784 48.548 20.8594 47.9078 20.8594H41.8799V23.1778H46.7486V27.6287L46.2086 26.9358L44.38 28.361L46.9656 31.6871C47.4256 32.2775 48.3165 32.2842 48.785 31.6988L51.3826 28.4485L49.5724 26.9957Z" fill="#4DA3C7"/>
</g>
</g>
<g filter="url(#filter1_i_2823_41063)">
<path d="M159.499 34.0004C159.499 52.5022 144.501 67.5 125.998 67.5C107.498 67.5 92.5 52.5022 92.5 34.0004C92.5 15.4985 107.498 0.5 125.998 0.5C144.501 0.500708 159.499 15.4985 159.499 34.0004Z" fill="#F9F9F9" stroke="#4DA3C7"/>
<g clip-path="url(#clip1_2823_41063)">
<path d="M127.497 24.1138H138.018V47.5624H127.497V24.1138Z" fill="white"/>
<path d="M131.644 28.2517H133.948V31.0104H131.644V28.2517Z" fill="#3E4D6C"/>
<path d="M111.524 17.217H127.497V47.5623H111.524V17.217Z" fill="white"/>
<path d="M115.364 32.3897V17.217H111.524V47.5623H127.497V44.4971C120.796 44.4971 115.364 39.0764 115.364 32.3897Z" fill="#E6E7E8"/>
<path d="M116.669 39.4395H122.428V47.5622H116.669V39.4395Z" fill="#4DA3C7"/>
<path d="M115.287 21.1252H117.591V23.8839H115.287V21.1252Z" fill="#3E4D6C"/>
<path d="M121.43 21.1252H123.734V23.8839H121.43V21.1252Z" fill="#3E4D6C"/>
<path d="M115.287 26.949H117.591V29.7843H115.287V26.949Z" fill="#4DA3C7"/>
<path d="M121.43 26.949H123.734V29.7843H121.43V26.949Z" fill="#4DA3C7"/>
<path d="M115.287 32.8496H117.591V35.6083H115.287V32.8496Z" fill="#3E4D6C"/>
<path d="M121.43 32.8496H123.734V35.6083H121.43V32.8496Z" fill="#3E4D6C"/>
<path d="M142.855 50.7807H130.568V47.6115C130.568 44.2409 133.301 41.5085 136.671 41.5085H136.723C140.11 41.5085 142.855 44.2539 142.855 47.6405V50.7807Z" fill="white"/>
<path d="M136.712 47.7156C134.994 47.7156 133.601 46.326 133.601 44.6119C133.601 43.7116 133.778 42.8575 134.127 42.0874C131.995 43.0499 130.491 45.1898 130.491 47.6771V50.7808H142.855V47.7156H136.712Z" fill="#E6E7E8"/>
<path d="M135.56 43.3477H137.864V47.7922H135.56V43.3477Z" fill="#4DA3C7"/>
<path d="M136.697 43.3355C138.875 43.3355 140.641 41.5831 140.641 39.4214C140.641 37.2597 138.875 35.5073 136.697 35.5073C134.518 35.5073 132.752 37.2597 132.752 39.4214C132.752 41.5831 134.518 43.3355 136.697 43.3355Z" fill="white"/>
<path d="M141.197 41.8962C141.612 41.1639 141.841 40.3199 141.841 39.4213C141.841 36.6293 139.55 34.3578 136.74 34.3578C133.93 34.3578 131.641 36.6293 131.641 39.4213C131.641 40.3195 131.874 41.1619 132.288 41.8941C130.865 42.9827 129.85 44.5737 129.527 46.4128H128.725V25.2631H136.942V32.313H139.246V24.1228C139.246 23.488 138.713 22.9643 138.077 22.9643H128.725V17.2396C128.725 16.6048 128.205 16.0676 127.569 16.0676H111.58C110.944 16.0676 110.449 16.6048 110.449 17.2396V46.4128H107.915V48.7117H129.416V50.8032C129.416 51.438 129.94 51.9302 130.576 51.9302H142.895C143.531 51.9302 144.084 51.438 144.084 50.8032V47.677C144.084 45.3231 142.939 43.2281 141.197 41.8962ZM126.421 46.4128H112.752V18.3665H126.421V46.4128ZM136.735 36.6567C138.275 36.6567 139.528 37.897 139.528 39.4213C139.528 40.9457 138.275 42.186 136.735 42.186C135.196 42.186 133.943 40.9457 133.943 39.4213C133.943 37.897 135.196 36.6567 136.735 36.6567ZM141.78 49.6313H131.72V47.677C131.72 45.9917 132.567 44.5001 133.854 43.5976C134.674 44.1567 135.666 44.4849 136.733 44.4849C137.8 44.4849 138.811 44.1568 139.63 43.5976C140.917 44.5002 141.78 45.9917 141.78 47.677V49.6313Z" fill="#3E4D6C"/>
</g>
</g>
<defs>
<filter id="filter0_i_2823_41063" x="0" y="0" width="67.9956" height="71.9971" filterUnits="userSpaceOnUse" color-interpolation-filters="sRGB">
<feFlood flood-opacity="0" result="BackgroundImageFix"/>
<feBlend mode="normal" in="SourceGraphic" in2="BackgroundImageFix" result="shape"/>
<feColorMatrix in="SourceAlpha" type="matrix" values="0 0 0 0 0 0 0 0 0 0 0 0 0 0 0 0 0 0 127 0" result="hardAlpha"/>
<feOffset dy="4"/>
<feGaussianBlur stdDeviation="8.65"/>
<feComposite in2="hardAlpha" operator="arithmetic" k2="-1" k3="1"/>
<feColorMatrix type="matrix" values="0 0 0 0 0.6325 0 0 0 0 0.794631 0 0 0 0 0.8625 0 0 0 1 0"/>
<feBlend mode="normal" in2="shape" result="effect1_innerShadow_2823_41063"/>
</filter>
<filter id="filter1_i_2823_41063" x="92" y="0" width="67.9985" height="72" filterUnits="userSpaceOnUse" color-interpolation-filters="sRGB">
<feFlood flood-opacity="0" result="BackgroundImageFix"/>
<feBlend mode="normal" in="SourceGraphic" in2="BackgroundImageFix" result="shape"/>
<feColorMatrix in="SourceAlpha" type="matrix" values="0 0 0 0 0 0 0 0 0 0 0 0 0 0 0 0 0 0 127 0" result="hardAlpha"/>
<feOffset dy="4"/>
<feGaussianBlur stdDeviation="8.65"/>
<feComposite in2="hardAlpha" operator="arithmetic" k2="-1" k3="1"/>
<feColorMatrix type="matrix" values="0 0 0 0 0.6325 0 0 0 0 0.794631 0 0 0 0 0.8625 0 0 0 1 0"/>
<feBlend mode="normal" in2="shape" result="effect1_innerShadow_2823_41063"/>
</filter>
<clipPath id="clip0_2823_41063">
<rect width="36.1674" height="36.1674" fill="white" transform="translate(15.9136 15.9136)"/>
</clipPath>
<clipPath id="clip1_2823_41063">
<rect width="36.1691" height="36.1691" fill="white" transform="translate(107.915 15.9143)"/>
</clipPath>
</defs>
</svg>
