<svg xmlns="http://www.w3.org/2000/svg" width="40" height="41" viewBox="0 0 40 41" fill="none">
  <g clip-path="url(#clip0_3768_84073)">
    <path d="M28.6962 29.4805C28.6938 24.5766 24.7715 20.6024 19.9341 20.6024H19.9169L16.3895 25.0374L12.845 20.5808C8.00748 20.5808 4.08526 24.5549 4.08286 29.4589L4.0791 36.232H28.7L28.6962 29.4805Z" fill="white"/>
    <path d="M19.9342 19.369H19.917C19.541 19.369 19.1856 19.5404 18.9516 19.8347L16.3896 23.0559L13.8105 19.8131C13.5765 19.5188 13.2211 19.3474 12.8451 19.3474C7.33622 19.3474 2.8522 23.8831 2.84946 29.4583L2.8457 36.2314C2.84553 36.5586 2.97545 36.8726 3.20673 37.104C3.4381 37.3355 3.75194 37.4656 4.07921 37.4656H18.7515V34.9986H10.589V31.94H8.12186V34.9986H5.31331L5.31639 29.4597C5.31835 25.4415 8.38707 22.1373 12.2678 21.8367L15.4242 25.8053C15.8881 26.4198 16.8912 26.4197 17.355 25.8053L20.495 21.8573C22.0564 21.9761 23.5521 22.5885 24.7575 23.6116L26.3539 21.7309C24.5595 20.2078 22.2795 19.369 19.9342 19.369Z" fill="#003366"/>
    <path d="M16.3896 16.6157C20.2243 16.6157 23.333 13.2842 23.333 9.17462C23.333 5.065 20.2243 1.73351 16.3896 1.73351C12.5549 1.73351 9.44629 5.065 9.44629 9.17462C9.44629 13.2842 12.5549 16.6157 16.3896 16.6157Z" fill="white"/>
    <path d="M12.9706 4.76931C12.9706 3.98248 13.0853 3.22461 13.2965 2.51273C11.0147 3.73196 9.44629 6.25632 9.44629 9.17461C9.44629 13.2843 12.5549 16.6157 16.3896 16.6157C19.4901 16.6157 22.1152 14.4373 23.007 11.4312C22.0753 11.929 21.0255 12.2105 19.9138 12.2105C16.0792 12.2104 12.9706 8.87889 12.9706 4.76931Z" fill="#E7E7E7"/>
    <path d="M16.3897 17.8492C11.881 17.8492 8.21289 13.9579 8.21289 9.17461C8.21289 4.39137 11.881 0.5 16.3897 0.5C20.8984 0.5 24.5666 4.39137 24.5666 9.17461C24.5665 13.9578 20.8984 17.8492 16.3897 17.8492ZM16.3897 2.96692C13.2413 2.96692 10.6798 5.75171 10.6798 9.17453C10.6798 12.5974 13.2413 15.3822 16.3897 15.3822C19.5381 15.3822 22.0996 12.5974 22.0996 9.17453C22.0996 5.75171 19.5381 2.96692 16.3897 2.96692Z" fill="#003366"/>
    <path d="M29.6904 40.5C33.8131 40.5 37.1552 37.1561 37.1552 33.0312C37.1552 28.9063 33.8131 25.5624 29.6904 25.5624C25.5677 25.5624 22.2256 28.9063 22.2256 33.0312C22.2256 37.1561 25.5677 40.5 29.6904 40.5Z" fill="#4DA3C7"/>
    <path d="M28.4766 32.1516H30.9435V37.8404H28.4766V32.1516Z" fill="white"/>
    <path d="M29.6899 31.3188C30.5461 31.3188 31.2402 30.6256 31.2402 29.7704C31.2402 28.9153 30.5461 28.222 29.6899 28.222C28.8337 28.222 28.1396 28.9153 28.1396 29.7704C28.1396 30.6256 28.8337 31.3188 29.6899 31.3188Z" fill="white"/>
  </g>
  <defs>
    <clipPath id="clip0_3768_84073">
      <rect width="40" height="40" fill="white" transform="translate(0 0.5)"/>
    </clipPath>
  </defs>
</svg>