<svg width="56" height="56" viewBox="0 0 56 56" fill="none" xmlns="http://www.w3.org/2000/svg">
<g filter="url(#filter0_i_3859_4706)">
<path d="M55.5004 28.0011C55.5004 43.1895 43.1884 55.5015 27.9993 55.5015C12.812 55.5015 0.5 43.1896 0.5 28.0011C0.5 12.8126 12.812 0.5 27.9993 0.5C43.1884 0.500582 55.5004 12.8126 55.5004 28.0011Z" fill="#F9F9F9" stroke="#4DA3C7"/>
<g clip-path="url(#clip0_3859_4706)">
<path d="M37.3904 33.6341C37.3883 29.4657 34.0544 26.0877 29.9425 26.0877H29.9279L26.9297 29.8574L23.9168 26.0693C19.8049 26.0693 16.4711 29.4473 16.469 33.6157L16.4658 39.3728H37.3936L37.3904 33.6341Z" fill="white"/>
<path d="M29.9422 25.0392H29.9276C29.608 25.0392 29.3059 25.185 29.107 25.4351L26.9293 28.1731L24.7371 25.4167C24.5381 25.1666 24.2361 25.0209 23.9165 25.0209C19.2339 25.0209 15.4225 28.8762 15.4202 33.6152L15.417 39.3723C15.4168 39.6504 15.5273 39.9173 15.7239 40.114C15.9205 40.3108 16.1873 40.4213 16.4655 40.4213H28.9369V38.3244H21.9988V35.7246H19.9017V38.3244H17.5145L17.5171 33.6163C17.5187 30.2008 20.1272 27.3923 23.4258 27.1368L26.1088 30.5101C26.503 31.0325 27.3556 31.0324 27.7499 30.5101L30.4189 27.1543C31.7461 27.2553 33.0174 27.7759 34.042 28.6455L35.399 27.0468C33.8737 25.7522 31.9358 25.0392 29.9422 25.0392Z" fill="#3E4D6C"/>
<path d="M26.9302 22.699C30.1896 22.699 32.832 19.8672 32.832 16.374C32.832 12.8809 30.1896 10.0491 26.9302 10.0491C23.6707 10.0491 21.0283 12.8809 21.0283 16.374C21.0283 19.8672 23.6707 22.699 26.9302 22.699Z" fill="white"/>
<path d="M24.024 12.6295C24.024 11.9607 24.1215 11.3165 24.301 10.7114C22.3614 11.7478 21.0283 13.8935 21.0283 16.374C21.0283 19.8672 23.6707 22.699 26.9302 22.699C29.5656 22.699 31.7969 20.8473 32.5549 18.2921C31.763 18.7152 30.8707 18.9545 29.9257 18.9545C26.6663 18.9545 24.024 16.1227 24.024 12.6295Z" fill="#E7E7E7"/>
<path d="M26.9298 23.7475C23.0974 23.7475 19.9795 20.4398 19.9795 16.374C19.9795 12.3083 23.0974 9.00061 26.9298 9.00061C30.7622 9.00061 33.8801 12.3083 33.8801 16.374C33.88 20.4397 30.7622 23.7475 26.9298 23.7475ZM26.9298 11.0975C24.2536 11.0975 22.0764 13.4646 22.0764 16.374C22.0764 19.2834 24.2536 21.6505 26.9298 21.6505C29.6059 21.6505 31.7832 19.2834 31.7832 16.374C31.7832 13.4646 29.6059 11.0975 26.9298 11.0975Z" fill="#3E4D6C"/>
<path d="M38.2347 43.0006C41.739 43.0006 44.5798 40.1583 44.5798 36.6521C44.5798 33.146 41.739 30.3036 38.2347 30.3036C34.7304 30.3036 31.8896 33.146 31.8896 36.6521C31.8896 40.1583 34.7304 43.0006 38.2347 43.0006Z" fill="#4DA3C7"/>
<path d="M37.2031 35.9045H39.3V40.74H37.2031V35.9045Z" fill="white"/>
<path d="M38.2347 35.1966C38.9625 35.1966 39.5524 34.6074 39.5524 33.8805C39.5524 33.1536 38.9625 32.5644 38.2347 32.5644C37.507 32.5644 36.917 33.1536 36.917 33.8805C36.917 34.6074 37.507 35.1966 38.2347 35.1966Z" fill="white"/>
</g>
</g>
<defs>
<filter id="filter0_i_3859_4706" x="0" y="0" width="56.0005" height="60.0016" filterUnits="userSpaceOnUse" color-interpolation-filters="sRGB">
<feFlood flood-opacity="0" result="BackgroundImageFix"/>
<feBlend mode="normal" in="SourceGraphic" in2="BackgroundImageFix" result="shape"/>
<feColorMatrix in="SourceAlpha" type="matrix" values="0 0 0 0 0 0 0 0 0 0 0 0 0 0 0 0 0 0 127 0" result="hardAlpha"/>
<feOffset dy="4"/>
<feGaussianBlur stdDeviation="8.65"/>
<feComposite in2="hardAlpha" operator="arithmetic" k2="-1" k3="1"/>
<feColorMatrix type="matrix" values="0 0 0 0 0.6325 0 0 0 0 0.794631 0 0 0 0 0.8625 0 0 0 1 0"/>
<feBlend mode="normal" in2="shape" result="effect1_innerShadow_3859_4706"/>
</filter>
<clipPath id="clip0_3859_4706">
<rect width="34" height="34" fill="white" transform="translate(12.998 9.00061)"/>
</clipPath>
</defs>
</svg>