<svg width="51" height="46" viewBox="0 0 51 46" fill="none" xmlns="http://www.w3.org/2000/svg">
<g clip-path="url(#clip0_3448_47521)">
<path d="M25.4487 35.8602C18.687 35.8602 12.3254 34.541 7.53506 32.1465C2.74468 29.7519 0 26.4614 0 22.9802C0 19.499 2.67591 16.2436 7.53506 13.814C12.3942 11.3844 18.687 10.1002 25.4487 10.1002C32.2103 10.1002 38.5719 11.4194 43.3622 13.814C48.1526 16.2085 50.8973 19.499 50.8973 22.9802C50.8973 26.4614 48.2214 29.7175 43.3622 32.1465C38.5031 34.5754 32.2103 35.8602 25.4487 35.8602ZM25.4487 10.7248C18.782 10.7248 12.5199 12.0202 7.81453 14.3729C3.10918 16.7256 0.625213 19.7472 0.625213 22.9802C0.625213 26.2132 3.17858 29.2692 7.81453 31.5875C12.4505 33.9058 18.782 35.2356 25.4487 35.2356C32.1153 35.2356 38.3774 33.9402 43.0828 31.5875C47.7881 29.2348 50.2721 26.2126 50.2721 22.9802C50.2721 19.7479 47.7187 16.6912 43.0828 14.3729C38.4468 12.0546 32.1153 10.7248 25.4487 10.7248Z" fill="#003366"/>
<path d="M34.4911 45.96C32.1028 45.96 29.3618 44.9878 26.4671 43.0765C21.9981 40.1255 17.6747 35.2757 14.2936 29.42C10.9124 23.5642 8.87424 17.3953 8.55351 12.0497C8.22777 6.62722 9.70953 2.68213 12.7243 0.940915C15.7397 -0.799677 19.8967 -0.110067 24.4302 2.88283C28.8992 5.83383 33.2225 10.6836 36.6037 16.5393C39.9848 22.3951 42.023 28.5641 42.3438 33.9096C42.6695 39.3321 41.1877 43.2772 38.173 45.0184C37.0832 45.648 35.8434 45.9593 34.4911 45.9593V45.96ZM16.4106 0.624558C15.1658 0.624558 14.0304 0.908404 13.0369 1.48235C10.2378 3.09852 8.86674 6.83792 9.17747 12.0122C9.49258 17.2633 11.502 23.3342 14.835 29.1074C18.168 34.8806 22.4213 39.6566 26.8116 42.5544C29.6013 44.3963 32.2247 45.3348 34.4867 45.3348C35.7315 45.3348 36.8663 45.0509 37.8603 44.477C40.6594 42.8608 42.0305 39.1214 41.7198 33.9471C41.4047 28.696 39.3952 22.6252 36.0622 16.8519C32.7292 11.0787 28.4759 6.30274 24.0857 3.40488C21.296 1.563 18.6726 0.624558 16.4106 0.624558Z" fill="#003366"/>
<path d="M16.4062 45.9599C15.0539 45.9599 13.8147 45.6486 12.7243 45.019C9.70891 43.2784 8.22779 39.3333 8.55352 33.9102C8.87426 28.5647 10.9131 22.3951 14.2936 16.5399C17.6741 10.6848 21.9975 5.83442 26.4671 2.88342C30.9999 -0.110097 35.1576 -0.799706 38.1723 0.940886C41.1877 2.68148 42.6689 6.62657 42.3431 12.0497C42.0224 17.3952 39.9836 23.5648 36.6031 29.4199C33.2225 35.2751 28.8992 40.1255 24.4295 43.0765C21.5354 44.9877 18.7939 45.9599 16.4056 45.9599H16.4062ZM34.4861 0.624528C32.2241 0.624528 29.6013 1.56235 26.811 3.40485C22.4214 6.30333 18.168 11.0787 14.8344 16.8519C11.5008 22.6251 9.49197 28.6966 9.17686 33.9471C8.86613 39.1214 10.2372 42.8608 13.0363 44.4769C15.836 46.0931 19.7592 45.4104 24.0851 42.5544C28.4747 39.6559 32.728 34.8806 36.0616 29.1073C39.3953 23.3341 41.4041 17.2627 41.7192 12.0121C42.0299 6.83789 40.6588 3.09849 37.8597 1.48232C36.8663 0.909 35.7309 0.624528 34.4861 0.624528Z" fill="#003366"/>
<path d="M31.8426 18.2449C32.5753 18.9777 32.9417 19.9374 32.9411 20.8977C32.9411 21.858 32.5753 22.8177 31.8426 23.5505L25.4366 29.9564L19.0288 23.5486C17.564 22.0837 17.564 19.7085 19.0288 18.2437C19.7616 17.5109 20.7213 17.1445 21.6822 17.1445C22.6419 17.1445 23.6016 17.5109 24.3344 18.2437L25.4366 19.3459L26.5376 18.2449C28.0025 16.78 30.3777 16.78 31.8426 18.2449Z" fill="#4DA3C7"/>
<path d="M25.4367 30.269C25.3536 30.269 25.2742 30.2358 25.2154 30.1777L18.8076 23.7699C18.0398 23.0021 17.6172 21.9818 17.6172 20.8964C17.6172 19.811 18.0398 18.7901 18.8076 18.0229C19.5754 17.2552 20.5957 16.8325 21.6817 16.8325C22.7671 16.8325 23.7874 17.2552 24.5545 18.0229L25.4361 18.9045L26.3158 18.0248C27.0835 17.257 28.1039 16.8344 29.1892 16.8344C30.2746 16.8344 31.295 17.257 32.0627 18.0248C32.8305 18.7926 33.2531 19.8135 33.2525 20.8983C33.2525 21.983 32.8305 23.004 32.0627 23.7718L25.6568 30.1777C25.598 30.2365 25.5186 30.269 25.4355 30.269H25.4367ZM21.6823 17.4571C20.7633 17.4571 19.8998 17.8147 19.2502 18.4643C18.6006 19.1139 18.243 19.9773 18.243 20.8958C18.243 21.8142 18.6006 22.6776 19.2502 23.3272L25.4367 29.5137L31.6219 23.3285C32.2715 22.6789 32.6292 21.8155 32.6285 20.897C32.6285 19.9786 32.2715 19.1152 31.6219 18.4656C30.9724 17.816 30.1089 17.4584 29.1905 17.4584C28.2721 17.4584 27.4086 17.816 26.759 18.4656L25.658 19.5666C25.5361 19.6885 25.3379 19.6885 25.216 19.5666L24.1138 18.4643C23.4642 17.8147 22.6008 17.4571 21.6829 17.4571H21.6823Z" fill="#003366"/>
</g>
<defs>
<clipPath id="clip0_3448_47521">
<rect width="50.8967" height="45.96" fill="white"/>
</clipPath>
</defs>
</svg>
