<?xml version="1.0" encoding="UTF-8"?>
<svg id="Layer_2" data-name="Layer 2" xmlns="http://www.w3.org/2000/svg" xmlns:xlink="http://www.w3.org/1999/xlink" viewBox="0 0 517.7 70.78">
  <defs>
    <style>
      .cls-1, .cls-2, .cls-3 {
        fill: none;
      }

      .cls-2 {
        stroke: #036;
      }

      .cls-2, .cls-3 {
        stroke-miterlimit: 10;
        stroke-width: 5.27px;
      }

      .cls-4 {
        fill: #036;
      }

      .cls-3 {
        stroke: #4da3c7;
      }

      .cls-5 {
        fill: url(#linear-gradient);
      }

      .cls-6 {
        clip-path: url(#clippath);
      }

      .cls-7 {
        fill: #1868db;
      }
    </style>
    <linearGradient id="linear-gradient" x1="87.49" y1="35.39" x2="517.7" y2="35.39" gradientUnits="userSpaceOnUse">
      <stop offset="0" stop-color="#036"/>
      <stop offset="1" stop-color="#4da3c7"/>
    </linearGradient>
    <clipPath id="clippath">
      <path class="cls-1" d="M6.26,6.26v58.27h58.27V6.26H6.26ZM13.61,31l-2.21-4.81,6.84-2.53,2.21,4.81-6.84,2.53ZM30.63,57.34l-4.07,1.87-.42.02-2.48-6.69,4.81-2.21,2.42,6.55-.27.47ZM42.32,20.46l-2.53-6.84,4.81-2.21,2.53,6.84-4.81,2.21ZM52.54,47.12l-2.21-4.81,6.84-2.53,2.21,4.81-6.84,2.53Z"/>
    </clipPath>
  </defs>
  <g id="Layer_1-2" data-name="Layer 1">
    <g>
      <g>
        <g>
          <path class="cls-7" d="M125.79,60h-9.58v-9.58h-19.17v9.58h-9.55v-28.71c0-2.65.5-5.14,1.5-7.46s2.37-4.36,4.09-6.09c1.72-1.74,3.75-3.11,6.08-4.11,2.33-1,4.81-1.5,7.46-1.5s5.14.5,7.46,1.5,4.36,2.37,6.09,4.11,3.11,3.77,4.11,6.09,1.5,4.81,1.5,7.46v28.71ZM116.21,40.87v-9.58c0-1.31-.25-2.55-.75-3.72s-1.19-2.19-2.05-3.06c-.87-.87-1.89-1.55-3.05-2.05-1.17-.5-2.41-.75-3.72-.75s-2.55.25-3.72.75c-1.17.5-2.19,1.19-3.06,2.05-.87.87-1.55,1.89-2.05,3.06s-.75,2.41-.75,3.72v9.58h19.17Z"/>
          <path class="cls-7" d="M152.78,60c-2.2,0-4.27-.42-6.21-1.25-1.94-.83-3.63-1.98-5.09-3.44-1.46-1.46-2.6-3.15-3.44-5.09-.83-1.94-1.25-4.01-1.25-6.21v-10.62h-4.44v-9.08h4.44v-14.29h9.08v14.29h13.82v9.08h-13.82v10.62c0,.96.18,1.85.53,2.69s.85,1.56,1.47,2.19c.62.62,1.36,1.12,2.2,1.49s1.75.55,2.71.55h6.91v9.08h-6.91Z"/>
          <path class="cls-7" d="M175.62,60h-9.12V10.02h9.12v15.79c1.09-.82,2.21-1.41,3.37-1.75,1.16-.34,2.34-.52,3.54-.52,2.2,0,4.27.42,6.21,1.25s3.62,1.98,5.06,3.44,2.57,3.16,3.41,5.11c.83,1.95,1.25,4.02,1.25,6.23v20.43h-9.18v-20.43h.07c0-.93-.18-1.82-.53-2.65-.36-.83-.85-1.56-1.47-2.19-.62-.62-1.35-1.11-2.17-1.47s-1.7-.53-2.64-.53-1.86.18-2.7.53c-.85.36-1.58.85-2.2,1.47-.62.62-1.11,1.35-1.47,2.19-.36.83-.53,1.72-.53,2.65v20.43Z"/>
          <path class="cls-7" d="M220.87,51.25c.36.11.71.18,1.07.22.36.03.71.05,1.07.05.89,0,1.75-.12,2.57-.37.82-.25,1.6-.6,2.32-1.05.72-.46,1.37-1.01,1.94-1.67.57-.66,1.03-1.39,1.39-2.19l6.68,6.71c-.85,1.2-1.82,2.28-2.92,3.24-1.1.96-2.29,1.77-3.57,2.44-1.28.67-2.63,1.17-4.04,1.52-1.41.35-2.87.52-4.36.52-2.52,0-4.88-.47-7.1-1.4-2.21-.93-4.15-2.24-5.81-3.91-1.66-1.67-2.97-3.66-3.92-5.96-.96-2.3-1.44-4.84-1.44-7.6s.48-5.41,1.44-7.75c.96-2.34,2.26-4.33,3.92-5.98,1.66-1.65,3.59-2.93,5.81-3.84s4.58-1.37,7.1-1.37c1.49,0,2.95.18,4.37.53,1.42.36,2.78.87,4.06,1.54s2.48,1.49,3.59,2.45,2.09,2.05,2.94,3.26l-17.1,20.6ZM225.55,32.45c-.42-.16-.84-.26-1.25-.3-.41-.04-.84-.07-1.29-.07-1.25,0-2.42.23-3.52.68-1.1.46-2.06,1.11-2.87,1.95-.81.85-1.45,1.86-1.92,3.05-.47,1.19-.7,2.53-.7,4.02,0,.33.02.71.05,1.13.03.42.09.85.17,1.29s.17.85.28,1.25.26.76.43,1.07l10.62-14.09Z"/>
          <path class="cls-7" d="M253.37,60h-9.12V24.24h2.2l3,3.47c1.47-1.33,3.13-2.37,4.99-3.09,1.86-.72,3.8-1.08,5.83-1.08,2.18,0,4.24.42,6.18,1.25,1.94.83,3.63,1.98,5.08,3.44,1.45,1.46,2.59,3.16,3.42,5.11.83,1.95,1.25,4.02,1.25,6.23v20.43h-9.12v-20.43c0-.93-.18-1.82-.53-2.65-.36-.83-.85-1.56-1.47-2.19-.62-.62-1.35-1.11-2.17-1.47s-1.7-.53-2.64-.53-1.86.18-2.7.53c-.85.36-1.58.85-2.2,1.47-.62.62-1.11,1.35-1.47,2.19-.36.83-.53,1.72-.53,2.65v20.43Z"/>
          <path class="cls-7" d="M319.02,60h-2.2l-3.54-4.91c-.87.78-1.79,1.51-2.75,2.19-.97.68-1.99,1.27-3.05,1.77-1.07.5-2.17.9-3.29,1.19-1.12.29-2.27.43-3.42.43-2.52,0-4.88-.42-7.1-1.27s-4.15-2.08-5.81-3.69c-1.66-1.61-2.97-3.59-3.92-5.93-.96-2.34-1.44-5-1.44-7.98,0-2.78.48-5.34,1.44-7.66s2.26-4.32,3.92-5.99c1.66-1.67,3.59-2.97,5.81-3.89s4.58-1.39,7.1-1.39c1.16,0,2.3.15,3.44.43,1.13.29,2.24.69,3.31,1.2,1.07.51,2.09,1.11,3.05,1.8.97.69,1.88,1.44,2.72,2.24l3.54-4.24h2.2v35.69ZM309.84,41.8c0-1.25-.24-2.45-.72-3.62-.48-1.17-1.13-2.2-1.95-3.11-.82-.9-1.79-1.62-2.89-2.17-1.1-.54-2.28-.82-3.52-.82s-2.42.21-3.52.63c-1.1.42-2.06,1.05-2.87,1.87-.81.82-1.45,1.84-1.92,3.06-.47,1.21-.7,2.6-.7,4.16s.23,2.94.7,4.16c.47,1.21,1.11,2.23,1.92,3.06.81.82,1.77,1.45,2.87,1.87,1.1.42,2.28.63,3.52.63s2.42-.27,3.52-.82c1.1-.54,2.06-1.27,2.89-2.17.82-.9,1.47-1.94,1.95-3.11.48-1.17.72-2.38.72-3.62Z"/>
          <path class="cls-7" d="M338.23,60h-9.58V12.12h19.17c1.76,0,3.45.23,5.08.68,1.62.46,3.14,1.1,4.56,1.94,1.41.83,2.71,1.84,3.87,3,1.17,1.17,2.17,2.47,3.01,3.89.83,1.42,1.48,2.95,1.94,4.57.46,1.62.68,3.32.68,5.08,0,2.63-.5,5.1-1.5,7.43-1,2.33-2.37,4.36-4.11,6.09s-3.77,3.11-6.09,4.11c-2.33,1-4.8,1.5-7.43,1.5h-9.58v9.58ZM338.23,21.7v19.17h9.58c1.31,0,2.55-.25,3.71-.75,1.16-.5,2.17-1.18,3.04-2.05.87-.87,1.55-1.89,2.05-3.05.5-1.17.75-2.41.75-3.72s-.25-2.55-.75-3.72-1.19-2.19-2.05-3.06c-.87-.87-1.88-1.55-3.04-2.05-1.16-.5-2.39-.75-3.71-.75h-9.58Z"/>
          <path class="cls-7" d="M382.41,60h-9.12V24.24h2.2l3,4.24c1.47-1.34,3.14-2.37,5.01-3.09,1.87-.72,3.81-1.08,5.81-1.08h8.05v9.08h-8.05c-.96,0-1.86.18-2.7.53-.85.36-1.58.85-2.2,1.47s-1.11,1.36-1.47,2.2c-.36.85-.53,1.75-.53,2.71v19.7Z"/>
          <path class="cls-7" d="M437.21,41.8c0,2.67-.48,5.16-1.44,7.46-.96,2.3-2.26,4.3-3.91,5.98-1.65,1.68-3.58,3.01-5.79,3.97-2.22.97-4.59,1.45-7.13,1.45s-4.88-.48-7.1-1.45c-2.22-.97-4.15-2.29-5.81-3.97-1.66-1.68-2.97-3.67-3.92-5.98-.96-2.3-1.44-4.79-1.44-7.46s.48-5.23,1.44-7.55c.96-2.31,2.26-4.31,3.92-5.99s3.59-3,5.81-3.96c2.21-.96,4.58-1.44,7.1-1.44s4.91.45,7.13,1.35c2.21.9,4.15,2.18,5.79,3.84,1.65,1.66,2.95,3.65,3.91,5.98s1.44,4.91,1.44,7.76ZM428.03,41.8c0-1.47-.24-2.8-.72-3.99-.48-1.19-1.13-2.21-1.95-3.07-.82-.86-1.79-1.51-2.89-1.97-1.1-.46-2.28-.68-3.52-.68s-2.42.23-3.52.68c-1.1.46-2.06,1.11-2.87,1.97-.81.86-1.45,1.88-1.92,3.07-.47,1.19-.7,2.52-.7,3.99,0,1.38.23,2.66.7,3.84.47,1.18,1.11,2.2,1.92,3.07.81.87,1.77,1.55,2.87,2.05,1.1.5,2.28.75,3.52.75s2.42-.23,3.52-.7c1.1-.47,2.06-1.12,2.89-1.97.82-.85,1.47-1.87,1.95-3.07.48-1.2.72-2.53.72-3.97Z"/>
          <path class="cls-7" d="M455.18,56.6c0,.8-.14,1.55-.43,2.25-.29.7-.69,1.31-1.2,1.82-.51.51-1.11.92-1.8,1.22-.69.3-1.44.45-2.24.45s-1.52-.15-2.22-.45-1.31-.71-1.84-1.22c-.52-.51-.93-1.12-1.24-1.82-.3-.7-.45-1.45-.45-2.25s.15-1.51.45-2.2c.3-.69.71-1.29,1.24-1.8.52-.51,1.14-.92,1.84-1.22s1.44-.45,2.22-.45,1.55.15,2.24.45c.69.3,1.29.71,1.8,1.22.51.51.91,1.11,1.2,1.8.29.69.43,1.43.43,2.2Z"/>
          <path class="cls-7" d="M498.29,60h-2.2l-3.54-4.91c-.87.78-1.79,1.51-2.75,2.19-.97.68-1.99,1.27-3.05,1.77-1.07.5-2.17.9-3.29,1.19-1.12.29-2.27.43-3.42.43-2.52,0-4.88-.42-7.1-1.27s-4.15-2.08-5.81-3.69c-1.66-1.61-2.97-3.59-3.92-5.93-.96-2.34-1.44-5-1.44-7.98,0-2.78.48-5.34,1.44-7.66s2.26-4.32,3.92-5.99c1.66-1.67,3.59-2.97,5.81-3.89s4.58-1.39,7.1-1.39c1.16,0,2.3.15,3.44.43,1.13.29,2.24.69,3.31,1.2,1.07.51,2.09,1.11,3.05,1.8.97.69,1.88,1.44,2.72,2.24l3.54-4.24h2.2v35.69ZM489.11,41.8c0-1.25-.24-2.45-.72-3.62-.48-1.17-1.13-2.2-1.95-3.11-.82-.9-1.79-1.62-2.89-2.17-1.1-.54-2.28-.82-3.52-.82s-2.42.21-3.52.63c-1.1.42-2.06,1.05-2.87,1.87-.81.82-1.45,1.84-1.92,3.06-.47,1.21-.7,2.6-.7,4.16s.23,2.94.7,4.16c.47,1.21,1.11,2.23,1.92,3.06.81.82,1.77,1.45,2.87,1.87,1.1.42,2.28.63,3.52.63s2.42-.27,3.52-.82c1.1-.54,2.06-1.27,2.89-2.17.82-.9,1.47-1.94,1.95-3.11.48-1.17.72-2.38.72-3.62Z"/>
          <path class="cls-7" d="M517.7,14.52c0,.85-.16,1.64-.48,2.37-.32.73-.76,1.37-1.32,1.92s-1.21.98-1.95,1.3c-.75.32-1.54.48-2.39.48s-1.64-.16-2.39-.48c-.75-.32-1.39-.76-1.94-1.3-.55-.55-.98-1.19-1.3-1.92-.32-.74-.48-1.52-.48-2.37s.16-1.61.48-2.35c.32-.75.76-1.39,1.3-1.94.54-.55,1.19-.98,1.94-1.3.75-.32,1.54-.48,2.39-.48s1.64.16,2.39.48,1.4.76,1.95,1.3c.56.54,1,1.19,1.32,1.94.32.75.48,1.53.48,2.35ZM516.13,60h-9.18V24.24h9.18v35.76Z"/>
        </g>
        <g>
          <path class="cls-5" d="M125.79,60h-9.58v-9.58h-19.17v9.58h-9.55v-28.71c0-2.65.5-5.14,1.5-7.46s2.37-4.36,4.09-6.09c1.72-1.74,3.75-3.11,6.08-4.11,2.33-1,4.81-1.5,7.46-1.5s5.14.5,7.46,1.5,4.36,2.37,6.09,4.11,3.11,3.77,4.11,6.09,1.5,4.81,1.5,7.46v28.71ZM116.21,40.87v-9.58c0-1.31-.25-2.55-.75-3.72s-1.19-2.19-2.05-3.06c-.87-.87-1.89-1.55-3.05-2.05-1.17-.5-2.41-.75-3.72-.75s-2.55.25-3.72.75c-1.17.5-2.19,1.19-3.06,2.05-.87.87-1.55,1.89-2.05,3.06s-.75,2.41-.75,3.72v9.58h19.17Z"/>
          <path class="cls-5" d="M152.78,60c-2.2,0-4.27-.42-6.21-1.25-1.94-.83-3.63-1.98-5.09-3.44-1.46-1.46-2.6-3.15-3.44-5.09-.83-1.94-1.25-4.01-1.25-6.21v-10.62h-4.44v-9.08h4.44v-14.29h9.08v14.29h13.82v9.08h-13.82v10.62c0,.96.18,1.85.53,2.69s.85,1.56,1.47,2.19c.62.62,1.36,1.12,2.2,1.49s1.75.55,2.71.55h6.91v9.08h-6.91Z"/>
          <path class="cls-5" d="M175.62,60h-9.12V10.02h9.12v15.79c1.09-.82,2.21-1.41,3.37-1.75,1.16-.34,2.34-.52,3.54-.52,2.2,0,4.27.42,6.21,1.25s3.62,1.98,5.06,3.44,2.57,3.16,3.41,5.11c.83,1.95,1.25,4.02,1.25,6.23v20.43h-9.18v-20.43h.07c0-.93-.18-1.82-.53-2.65-.36-.83-.85-1.56-1.47-2.19-.62-.62-1.35-1.11-2.17-1.47s-1.7-.53-2.64-.53-1.86.18-2.7.53c-.85.36-1.58.85-2.2,1.47-.62.62-1.11,1.35-1.47,2.19-.36.83-.53,1.72-.53,2.65v20.43Z"/>
          <path class="cls-5" d="M220.87,51.25c.36.11.71.18,1.07.22.36.03.71.05,1.07.05.89,0,1.75-.12,2.57-.37.82-.25,1.6-.6,2.32-1.05.72-.46,1.37-1.01,1.94-1.67.57-.66,1.03-1.39,1.39-2.19l6.68,6.71c-.85,1.2-1.82,2.28-2.92,3.24-1.1.96-2.29,1.77-3.57,2.44-1.28.67-2.63,1.17-4.04,1.52-1.41.35-2.87.52-4.36.52-2.52,0-4.88-.47-7.1-1.4-2.21-.93-4.15-2.24-5.81-3.91-1.66-1.67-2.97-3.66-3.92-5.96-.96-2.3-1.44-4.84-1.44-7.6s.48-5.41,1.44-7.75c.96-2.34,2.26-4.33,3.92-5.98,1.66-1.65,3.59-2.93,5.81-3.84s4.58-1.37,7.1-1.37c1.49,0,2.95.18,4.37.53,1.42.36,2.78.87,4.06,1.54s2.48,1.49,3.59,2.45,2.09,2.05,2.94,3.26l-17.1,20.6ZM225.55,32.45c-.42-.16-.84-.26-1.25-.3-.41-.04-.84-.07-1.29-.07-1.25,0-2.42.23-3.52.68-1.1.46-2.06,1.11-2.87,1.95-.81.85-1.45,1.86-1.92,3.05-.47,1.19-.7,2.53-.7,4.02,0,.33.02.71.05,1.13.03.42.09.85.17,1.29s.17.85.28,1.25.26.76.43,1.07l10.62-14.09Z"/>
          <path class="cls-5" d="M253.37,60h-9.12V24.24h2.2l3,3.47c1.47-1.33,3.13-2.37,4.99-3.09,1.86-.72,3.8-1.08,5.83-1.08,2.18,0,4.24.42,6.18,1.25,1.94.83,3.63,1.98,5.08,3.44,1.45,1.46,2.59,3.16,3.42,5.11.83,1.95,1.25,4.02,1.25,6.23v20.43h-9.12v-20.43c0-.93-.18-1.82-.53-2.65-.36-.83-.85-1.56-1.47-2.19-.62-.62-1.35-1.11-2.17-1.47s-1.7-.53-2.64-.53-1.86.18-2.7.53c-.85.36-1.58.85-2.2,1.47-.62.62-1.11,1.35-1.47,2.19-.36.83-.53,1.72-.53,2.65v20.43Z"/>
          <path class="cls-5" d="M319.02,60h-2.2l-3.54-4.91c-.87.78-1.79,1.51-2.75,2.19-.97.68-1.99,1.27-3.05,1.77-1.07.5-2.17.9-3.29,1.19-1.12.29-2.27.43-3.42.43-2.52,0-4.88-.42-7.1-1.27s-4.15-2.08-5.81-3.69c-1.66-1.61-2.97-3.59-3.92-5.93-.96-2.34-1.44-5-1.44-7.98,0-2.78.48-5.34,1.44-7.66s2.26-4.32,3.92-5.99c1.66-1.67,3.59-2.97,5.81-3.89s4.58-1.39,7.1-1.39c1.16,0,2.3.15,3.44.43,1.13.29,2.24.69,3.31,1.2,1.07.51,2.09,1.11,3.05,1.8.97.69,1.88,1.44,2.72,2.24l3.54-4.24h2.2v35.69ZM309.84,41.8c0-1.25-.24-2.45-.72-3.62-.48-1.17-1.13-2.2-1.95-3.11-.82-.9-1.79-1.62-2.89-2.17-1.1-.54-2.28-.82-3.52-.82s-2.42.21-3.52.63c-1.1.42-2.06,1.05-2.87,1.87-.81.82-1.45,1.84-1.92,3.06-.47,1.21-.7,2.6-.7,4.16s.23,2.94.7,4.16c.47,1.21,1.11,2.23,1.92,3.06.81.82,1.77,1.45,2.87,1.87,1.1.42,2.28.63,3.52.63s2.42-.27,3.52-.82c1.1-.54,2.06-1.27,2.89-2.17.82-.9,1.47-1.94,1.95-3.11.48-1.17.72-2.38.72-3.62Z"/>
          <path class="cls-5" d="M338.23,60h-9.58V12.12h19.17c1.76,0,3.45.23,5.08.68,1.62.46,3.14,1.1,4.56,1.94,1.41.83,2.71,1.84,3.87,3,1.17,1.17,2.17,2.47,3.01,3.89.83,1.42,1.48,2.95,1.94,4.57.46,1.62.68,3.32.68,5.08,0,2.63-.5,5.1-1.5,7.43-1,2.33-2.37,4.36-4.11,6.09s-3.77,3.11-6.09,4.11c-2.33,1-4.8,1.5-7.43,1.5h-9.58v9.58ZM338.23,21.7v19.17h9.58c1.31,0,2.55-.25,3.71-.75,1.16-.5,2.17-1.18,3.04-2.05.87-.87,1.55-1.89,2.05-3.05.5-1.17.75-2.41.75-3.72s-.25-2.55-.75-3.72-1.19-2.19-2.05-3.06c-.87-.87-1.88-1.55-3.04-2.05-1.16-.5-2.39-.75-3.71-.75h-9.58Z"/>
          <path class="cls-5" d="M382.41,60h-9.12V24.24h2.2l3,4.24c1.47-1.34,3.14-2.37,5.01-3.09,1.87-.72,3.81-1.08,5.81-1.08h8.05v9.08h-8.05c-.96,0-1.86.18-2.7.53-.85.36-1.58.85-2.2,1.47s-1.11,1.36-1.47,2.2c-.36.85-.53,1.75-.53,2.71v19.7Z"/>
          <path class="cls-5" d="M437.21,41.8c0,2.67-.48,5.16-1.44,7.46-.96,2.3-2.26,4.3-3.91,5.98-1.65,1.68-3.58,3.01-5.79,3.97-2.22.97-4.59,1.45-7.13,1.45s-4.88-.48-7.1-1.45c-2.22-.97-4.15-2.29-5.81-3.97-1.66-1.68-2.97-3.67-3.92-5.98-.96-2.3-1.44-4.79-1.44-7.46s.48-5.23,1.44-7.55c.96-2.31,2.26-4.31,3.92-5.99s3.59-3,5.81-3.96c2.21-.96,4.58-1.44,7.1-1.44s4.91.45,7.13,1.35c2.21.9,4.15,2.18,5.79,3.84,1.65,1.66,2.95,3.65,3.91,5.98s1.44,4.91,1.44,7.76ZM428.03,41.8c0-1.47-.24-2.8-.72-3.99-.48-1.19-1.13-2.21-1.95-3.07-.82-.86-1.79-1.51-2.89-1.97-1.1-.46-2.28-.68-3.52-.68s-2.42.23-3.52.68c-1.1.46-2.06,1.11-2.87,1.97-.81.86-1.45,1.88-1.92,3.07-.47,1.19-.7,2.52-.7,3.99,0,1.38.23,2.66.7,3.84.47,1.18,1.11,2.2,1.92,3.07.81.87,1.77,1.55,2.87,2.05,1.1.5,2.28.75,3.52.75s2.42-.23,3.52-.7c1.1-.47,2.06-1.12,2.89-1.97.82-.85,1.47-1.87,1.95-3.07.48-1.2.72-2.53.72-3.97Z"/>
          <path class="cls-5" d="M455.18,56.6c0,.8-.14,1.55-.43,2.25-.29.7-.69,1.31-1.2,1.82-.51.51-1.11.92-1.8,1.22-.69.3-1.44.45-2.24.45s-1.52-.15-2.22-.45-1.31-.71-1.84-1.22c-.52-.51-.93-1.12-1.24-1.82-.3-.7-.45-1.45-.45-2.25s.15-1.51.45-2.2c.3-.69.71-1.29,1.24-1.8.52-.51,1.14-.92,1.84-1.22s1.44-.45,2.22-.45,1.55.15,2.24.45c.69.3,1.29.71,1.8,1.22.51.51.91,1.11,1.2,1.8.29.69.43,1.43.43,2.2Z"/>
          <path class="cls-5" d="M498.29,60h-2.2l-3.54-4.91c-.87.78-1.79,1.51-2.75,2.19-.97.68-1.99,1.27-3.05,1.77-1.07.5-2.17.9-3.29,1.19-1.12.29-2.27.43-3.42.43-2.52,0-4.88-.42-7.1-1.27s-4.15-2.08-5.81-3.69c-1.66-1.61-2.97-3.59-3.92-5.93-.96-2.34-1.44-5-1.44-7.98,0-2.78.48-5.34,1.44-7.66s2.26-4.32,3.92-5.99c1.66-1.67,3.59-2.97,5.81-3.89s4.58-1.39,7.1-1.39c1.16,0,2.3.15,3.44.43,1.13.29,2.24.69,3.31,1.2,1.07.51,2.09,1.11,3.05,1.8.97.69,1.88,1.44,2.72,2.24l3.54-4.24h2.2v35.69ZM489.11,41.8c0-1.25-.24-2.45-.72-3.62-.48-1.17-1.13-2.2-1.95-3.11-.82-.9-1.79-1.62-2.89-2.17-1.1-.54-2.28-.82-3.52-.82s-2.42.21-3.52.63c-1.1.42-2.06,1.05-2.87,1.87-.81.82-1.45,1.84-1.92,3.06-.47,1.21-.7,2.6-.7,4.16s.23,2.94.7,4.16c.47,1.21,1.11,2.23,1.92,3.06.81.82,1.77,1.45,2.87,1.87,1.1.42,2.28.63,3.52.63s2.42-.27,3.52-.82c1.1-.54,2.06-1.27,2.89-2.17.82-.9,1.47-1.94,1.95-3.11.48-1.17.72-2.38.72-3.62Z"/>
          <path class="cls-5" d="M517.7,14.52c0,.85-.16,1.64-.48,2.37-.32.73-.76,1.37-1.32,1.92s-1.21.98-1.95,1.3c-.75.32-1.54.48-2.39.48s-1.64-.16-2.39-.48c-.75-.32-1.39-.76-1.94-1.3-.55-.55-.98-1.19-1.3-1.92-.32-.74-.48-1.52-.48-2.37s.16-1.61.48-2.35c.32-.75.76-1.39,1.3-1.94.54-.55,1.19-.98,1.94-1.3.75-.32,1.54-.48,2.39-.48s1.64.16,2.39.48,1.4.76,1.95,1.3c.56.54,1,1.19,1.32,1.94.32.75.48,1.53.48,2.35ZM516.13,60h-9.18V24.24h9.18v35.76Z"/>
        </g>
      </g>
      <g>
        <g>
          <path class="cls-2" d="M59.46,17.31l-6.65,14.46c-1.06,2.3-1.06,4.96,0,7.26l6.65,14.46c1.75,3.81-2.18,7.73-5.98,5.98l-14.46-6.65c-2.3-1.06-4.96-1.06-7.26,0l-14.46,6.65c-3.81,1.75-7.73-2.18-5.98-5.98l6.65-14.46c1.06-2.3,1.06-4.96,0-7.26l-6.65-14.46c-1.75-3.81,2.18-7.73,5.98-5.98l14.46,6.65c2.3,1.06,4.96,1.06,7.26,0l14.46-6.65c3.81-1.75,7.73,2.18,5.98,5.98Z"/>
          <path class="cls-3" d="M39.62,5.58l5.41,14.62c.95,2.57,2.98,4.6,5.55,5.55l14.62,5.41c3.93,1.45,3.93,7.01,0,8.46l-14.62,5.41c-2.57.95-4.6,2.98-5.55,5.55l-5.41,14.62c-1.45,3.93-7.01,3.93-8.46,0l-5.41-14.62c-.95-2.57-2.98-4.6-5.55-5.55l-14.62-5.41c-3.93-1.45-3.93-7.01,0-8.46l14.62-5.41c2.57-.95,4.6-2.98,5.55-5.55l5.41-14.62c1.45-3.93,7.01-3.93,8.46,0Z"/>
          <g class="cls-6">
            <path class="cls-2" d="M59.46,17.31l-6.65,14.46c-1.06,2.3-1.06,4.96,0,7.26l6.65,14.46c1.75,3.81-2.18,7.73-5.98,5.98l-14.46-6.65c-2.3-1.06-4.96-1.06-7.26,0l-14.46,6.65c-3.81,1.75-7.73-2.18-5.98-5.98l6.65-14.46c1.06-2.3,1.06-4.96,0-7.26l-6.65-14.46c-1.75-3.81,2.18-7.73,5.98-5.98l14.46,6.65c2.3,1.06,4.96,1.06,7.26,0l14.46-6.65c3.81-1.75,7.73,2.18,5.98,5.98Z"/>
          </g>
        </g>
        <path class="cls-4" d="M36.22,27.69l2.43,4.45,4.45,2.43c.66.36.66,1.3,0,1.66l-4.45,2.43-2.43,4.45c-.36.66-1.3.66-1.66,0l-2.43-4.45-4.45-2.43c-.66-.36-.66-1.3,0-1.66l4.45-2.43,2.43-4.45c.36-.66,1.3-.66,1.66,0Z"/>
      </g>
    </g>
  </g>
</svg>